<svg id="Capa_1" data-name="Capa 1" xmlns="http://www.w3.org/2000/svg" xmlns:xlink="http://www.w3.org/1999/xlink" viewBox="0 0 71.01 57.58"><defs><style>.cls-1{fill:#1d1d1b;}.cls-2{fill:#008d36;stroke:#ea5b0c;stroke-miterlimit:10;stroke-width:0.66px;}.cls-3{fill:url(#Degradado_sin_nombre_29);}</style><linearGradient id="Degradado_sin_nombre_29" x1="31.22" y1="18.39" x2="41.86" y2="18.39" gradientUnits="userSpaceOnUse"><stop offset="0" stop-color="#3aaa35"/><stop offset="0.19" stop-color="#558f30"/><stop offset="0.6" stop-color="#9b4c22"/><stop offset="1" stop-color="#e30613"/></linearGradient></defs><title>vector</title><path class="cls-1" d="M50.14,54.87c0,.05.06,0,.07,0S50.12,54.88,50.14,54.87Z" transform="translate(-12.68 -7.15)"/><polygon class="cls-1" points="37.1 47.08 37.13 47.08 37.04 47 37.1 47.08"/><path class="cls-1" d="M49.59,53.59c-.09.09.07.23.08.35l0,0,.1,0A1.15,1.15,0,0,1,49.59,53.59Z" transform="translate(-12.68 -7.15)"/><path class="cls-1" d="M49.72,53.18s-.06-.07,0,.08v-.08Z" transform="translate(-12.68 -7.15)"/><path class="cls-1" d="M49.73,53.24c0,.07,0-.05,0,0Z" transform="translate(-12.68 -7.15)"/><path class="cls-1" d="M49.63,52.93l.06.08s0-.1,0-.08S49.65,52.87,49.63,52.93Z" transform="translate(-12.68 -7.15)"/><path class="cls-1" d="M49.53,52.87l0,0S49.56,52.89,49.53,52.87Z" transform="translate(-12.68 -7.15)"/><path class="cls-1" d="M49.61,53l0-.09s-.05,0,0,0S49.58,53,49.61,53Z" transform="translate(-12.68 -7.15)"/><path class="cls-1" d="M49.61,53.06c0,.06,0,.13-.06,0C49.61,53.28,49.67,53.23,49.61,53.06Z" transform="translate(-12.68 -7.15)"/><path class="cls-1" d="M49.47,53.58v.08l0,.05S49.5,53.57,49.47,53.58Z" transform="translate(-12.68 -7.15)"/><path class="cls-1" d="M49.54,52.36s0,0-.08.06l0,.06S49.51,52.37,49.54,52.36Z" transform="translate(-12.68 -7.15)"/><path class="cls-1" d="M49.46,52.42l-.06-.09C49.42,52.42,49.44,52.43,49.46,52.42Z" transform="translate(-12.68 -7.15)"/><polygon class="cls-1" points="36.73 45.73 36.85 45.87 36.72 45.7 36.73 45.73"/><polygon class="cls-1" points="36.78 44.82 36.85 44.87 36.75 44.78 36.78 44.82"/><path class="cls-1" d="M49.4,51.72c.05,0,.06-.07.09,0a.38.38,0,0,0-.11-.16A.24.24,0,0,1,49.4,51.72Z" transform="translate(-12.68 -7.15)"/><path class="cls-1" d="M49.31,51.45l.07.08A.27.27,0,0,0,49.31,51.45Z" transform="translate(-12.68 -7.15)"/><path class="cls-1" d="M49.38,52.15a.11.11,0,0,0,0-.09l-.05,0Z" transform="translate(-12.68 -7.15)"/><path class="cls-1" d="M49.37,52.11h0l0-.08Z" transform="translate(-12.68 -7.15)"/><path class="cls-1" d="M49.38,52.16h0S49.37,52.16,49.38,52.16Z" transform="translate(-12.68 -7.15)"/><path class="cls-1" d="M49.4,52.61c0-.06-.12-.17-.14,0S49.32,52.53,49.4,52.61Z" transform="translate(-12.68 -7.15)"/><path class="cls-1" d="M49.31,52.23v.11a0,0,0,0,1,.06,0Z" transform="translate(-12.68 -7.15)"/><polygon class="cls-1" points="36.6 45.03 36.63 45.08 36.63 45.03 36.6 45.03"/><path class="cls-1" d="M49.29,51.64a.35.35,0,0,1-.07-.15,1.11,1.11,0,0,0,0,.19S49.31,51.71,49.29,51.64Z" transform="translate(-12.68 -7.15)"/><path class="cls-1" d="M49.32,51.87h0S49.31,51.87,49.32,51.87Z" transform="translate(-12.68 -7.15)"/><polygon class="cls-1" points="36.44 43.77 36.43 43.78 36.45 43.78 36.44 43.77"/><path class="cls-1" d="M49.23,51.69a.11.11,0,0,0,.05.1.36.36,0,0,1,0-.11Z" transform="translate(-12.68 -7.15)"/><path class="cls-1" d="M49.25,51.29s0,.06,0,.09S49.27,51.3,49.25,51.29Z" transform="translate(-12.68 -7.15)"/><path class="cls-1" d="M49.33,51.84h0S49.34,51.83,49.33,51.84Z" transform="translate(-12.68 -7.15)"/><path class="cls-1" d="M49.33,51.84l0-.05a.16.16,0,0,0,0,.07Z" transform="translate(-12.68 -7.15)"/><path class="cls-1" d="M48.69,50.82c.06,0,.13.11.09.23s.24,0,.33-.11,0,0-.1-.1,0,.25-.1.17,0-.12,0-.19-.14-.17-.24-.12l.06.12S48.7,50.78,48.69,50.82Z" transform="translate(-12.68 -7.15)"/><path class="cls-1" d="M49.14,51.14l0,0a.41.41,0,0,1,.05-.16c0-.07-.06-.08-.09-.08l0,.21Z" transform="translate(-12.68 -7.15)"/><path class="cls-1" d="M49.19,51.38c-.07,0-.11-.12-.17,0s.07.08.11.15c-.05-.21,0,0,0-.11a.76.76,0,0,1,0,.11s0-.07,0-.11h0c0-.06,0,0,0,0h0l-.07-.21A1.06,1.06,0,0,0,49.19,51.38Z" transform="translate(-12.68 -7.15)"/><path class="cls-1" d="M49.1,52.49h0S49.09,52.47,49.1,52.49Z" transform="translate(-12.68 -7.15)"/><path class="cls-1" d="M49.11,52.4a.07.07,0,0,1,0,.07c0,.05,0,0,0,0s.07.1.08,0v0c0-.09,0-.21.07-.2A.47.47,0,0,0,49.11,52.4Z" transform="translate(-12.68 -7.15)"/><path class="cls-1" d="M49.13,51.88l-.07-.16,0,.1h0C49.07,51.91,49.1,51.88,49.13,51.88Z" transform="translate(-12.68 -7.15)"/><polygon class="cls-1" points="36.47 43.75 36.54 43.76 36.43 43.67 36.47 43.75"/><polygon class="cls-1" points="36.43 43.52 36.49 43.52 36.44 43.47 36.43 43.52"/><path class="cls-1" d="M48.53,37.66V37.6A.11.11,0,0,0,48.53,37.66Z" transform="translate(-12.68 -7.15)"/><path class="cls-1" d="M48.48,38l0,0S48.48,38,48.48,38Z" transform="translate(-12.68 -7.15)"/><path class="cls-1" d="M48.69,45.07c.06-.08.15-.16.08-.15l-.07,0A.19.19,0,0,1,48.69,45.07Z" transform="translate(-12.68 -7.15)"/><polygon class="cls-1" points="35.81 34.02 35.79 34.04 35.84 34.09 35.81 34.02"/><path class="cls-1" d="M48.22,41.09l.05-.09Z" transform="translate(-12.68 -7.15)"/><path class="cls-1" d="M48.75,35.59l-.06-.07C48.68,35.61,48.72,35.58,48.75,35.59Z" transform="translate(-12.68 -7.15)"/><path class="cls-1" d="M48.8,48.35a.53.53,0,0,0,0-.16C48.79,48.27,48.74,48.34,48.8,48.35Z" transform="translate(-12.68 -7.15)"/><path class="cls-1" d="M49.2,37.89s0,0,0,0S49.18,37.9,49.2,37.89Z" transform="translate(-12.68 -7.15)"/><path class="cls-1" d="M48.8,48v0a.33.33,0,0,1,0,.15A.19.19,0,0,0,48.8,48Z" transform="translate(-12.68 -7.15)"/><path class="cls-1" d="M49.42,28.2v0Z" transform="translate(-12.68 -7.15)"/><path class="cls-1" d="M49.75,25.94l0,.09A.42.42,0,0,0,49.75,25.94Z" transform="translate(-12.68 -7.15)"/><path class="cls-1" d="M49,49.76c0,.05,0,0,0,0Z" transform="translate(-12.68 -7.15)"/><path class="cls-1" d="M48.77,50h0Z" transform="translate(-12.68 -7.15)"/><path class="cls-1" d="M48.37,47.54Z" transform="translate(-12.68 -7.15)"/><path class="cls-1" d="M49,49.84a.15.15,0,0,0,0-.07A.35.35,0,0,0,49,49.84Z" transform="translate(-12.68 -7.15)"/><path class="cls-1" d="M49,49.82v0S49,49.87,49,49.82Z" transform="translate(-12.68 -7.15)"/><path class="cls-1" d="M49,49.7v.07a0,0,0,0,1,0,0Z" transform="translate(-12.68 -7.15)"/><path class="cls-1" d="M49.46,32.17h0S49.44,32.13,49.46,32.17Z" transform="translate(-12.68 -7.15)"/><polygon class="cls-1" points="35.36 36.62 35.36 36.63 35.37 36.62 35.36 36.62"/><path class="cls-1" d="M48,43.6c.08.08.07.12,0,.17l.19-.05Z" transform="translate(-12.68 -7.15)"/><path class="cls-1" d="M48.63,36.75l-.07.12c-.08-.17,0-.27-.13-.17.2,0,0,.49.16.53l-.06.08s0,0,0-.05c-.12.14.13.13.08.33s-.06.12-.08.07l0,.16s-.05,0,0,0v.24h0a1.29,1.29,0,0,1,.09.16c0,.06,0,0-.05,0l0,.14c-.06.05-.09-.07-.07-.16-.22.1,0,.12-.12.37v-.13c-.12.07-.09.17-.18.31,0,0,.21-.27.25-.12a.21.21,0,0,0,0,.18c-.07,0-.06.07-.07.17l-.09,0c0,.11.06.1.1.17s-.1.13-.17.15c0,.18.14-.11.13.11a.77.77,0,0,0,0,.45c0,.1-.05,0-.09,0l.07.1s0,0,0,0,.1,0,.11.15-.18.24-.08.41-.05,0-.09,0a1,1,0,0,0,.13.37l-.08.15c.08-.11.16,0,.22.17l.09-.09,0,.2s0,0-.09,0l0,0c0,.06-.09,0-.14,0l.07-.07a.33.33,0,0,0-.18-.1.14.14,0,0,1,0,.07s0,0,0,0,0,0,0,.06l-.11,0h0l-.09.26a1.6,1.6,0,0,1,.26.66c-.07-.08-.12,0-.22,0,.11-.07,0-.23,0-.38,0,.08-.06.06-.08,0l.08.28c-.08,0-.07,0-.1.12.15,0,.09.21.13.32s-.11,0-.08-.16c-.13.15.16.21.05.35,0,0,0-.05,0-.07s0,.27,0,.22v0c0,.22,0,.67.1.7a.61.61,0,0,1-.18-.05l.41.41c-.1,0-.37.09-.43-.1A.43.43,0,0,0,48,44s.16-.08.17,0-.07.09-.18.26c0-.06.2,0,.19.09s-.17,0-.19,0l.17.22c0-.06-.15,0-.19,0s0,.18,0,.24l0-.09c0,.24.23.24.22.47,0,0-.21-.07-.23.05s.41.24.48.45l-.05,0,.06.16a3.74,3.74,0,0,1-.52-.53c0,.09-.06,0-.05.16s-.07-.07-.07-.11l0,.31c.1,0,.1.24.19.22L48,45.58c.1,0,.29.19.27.41,0,0-.18,0-.21,0a.4.4,0,0,1,.05.23L48,46.09c0,.12.14.2,0,.35s-.12.15-.06.16a.8.8,0,0,1,.56-.06,3.13,3.13,0,0,1-.16.32c-.09.09-.22-.11-.3,0s.07,0,.08.07-.09,0-.07.09,0,.24.09.05c0,.12,0,.12,0,.26.06,0,.23.1.26.22s-.06,0-.07,0a5.62,5.62,0,0,0,0,.57s-.05.13-.09.09a.27.27,0,0,1,.06.12c-.07.14,0-.15-.12,0,.06,0,.1.17.14.26s0-.22-.05-.31c.13,0,.28.14.36.36s-.08.08-.06.11c0,.33.24.26.19.54-.07.12-.16,0-.22.06-.05-.14,0-.23,0-.33l0,.13a.26.26,0,0,1,0-.19c-.07.1,0,.56,0,.83,0,0,.07.11.1.07l0-.08c0-.08.11.14.12,0a.55.55,0,0,1,.13.37l-.08,0a.13.13,0,0,0,0-.15c0,.06-.09.25,0,.31l0-.12c.06.1.18.22.17.36.08-.08,0,0,.08-.14-.12.1,0-.34-.17-.19.11-.12,0-.18.12-.32S49,50,49,49.87l0,0h0a.15.15,0,0,1,0,.06c-.08,0-.1-.23-.14-.28s0,0,.06,0l-.06-.08c.06,0,.09-.19.15,0l0-.14a.38.38,0,0,0,0-.28c0-.06-.09-.16,0-.1l-.06-.22h0c0-.22-.15-.44-.05-.7a.72.72,0,0,1,0-.28l.06,0c0-.09,0-.29,0-.33.15-.11,0-.46,0-.63h-.08a1.72,1.72,0,0,0-.05-.37h-.07c-.06-.13,0-.32,0-.52,0,0,0,.06,0,.1.14-.24-.13-.5,0-.71a.15.15,0,0,1,0-.13h0v0l0-.07s0,0,0,.06a1.43,1.43,0,0,0,0-.16l.07,0h0c0-.06,0,0-.09,0a.2.2,0,0,0,0-.08c.12,0,0-.16.09-.23-.06,0,0-.3-.17-.34s0,0,0,0a.21.21,0,0,0,0-.19l.1,0-.12-.15c.06-.09.09-.13.16,0-.1-.22,0-.17-.14-.36h.06c0-.07-.07-.18,0-.21s.06-.73.18-1.1c-.18.06.09-.17,0-.2,0,0,.07-.07.1,0,0-.2.09-.29,0-.43,0,0,.06,0,.09,0s0-.06,0-.08,0,0,0,.06c0-.2-.12-.23-.24-.25.07-.1.07-.15,0-.22s.09-.09.09,0c0-.07.1-.41,0-.43s0-.09,0-.11,0-.17,0-.32l0,0c-.11-.07,0-.13,0-.25h0c.12-.27,0-.12.1-.39h-.07c-.16,0,.11-.24.07-.4l0,.05c0-.09.24-.22.27-.31s0,0,0,.06c.12-.21-.09,0-.09-.21s.12.06.14-.06-.12-.35,0-.5c0,0-.08.06-.1,0s.19-.31.08-.44,0,0,0,0,0-.31-.07-.38c.26,0,0-.59.19-.56l0-.29h0a.34.34,0,0,0,0-.32s0,0,0,0a.58.58,0,0,0,0-.53h.08c0-.07.17-.37.12-.65a.07.07,0,0,1,0,0c0-.31.31-.68.06-.83l0-.2c-.06.24-.11-.06-.17,0,0-.1.12-.25.12-.12h0c.13.07.09-.3.19-.28.06-.5.2-1,.26-1.45l-.11,0,0-.16s.09-.05.08.07c.06-.06,0-.2-.06-.21.07-.22.12.1.13,0V32a.31.31,0,0,1-.07-.24c0-.08.08,0,.08-.07s0,0,0,0l0-.21-.1.08c0-.1,0-.2-.08-.11.17-.13.11-.77.17-.85a.74.74,0,0,1,0-.42s-.12.06-.1-.08c.2.06.1-.24.24-.35-.1.1,0-.39-.16-.24,0-.11.08,0,.13-.09a7.35,7.35,0,0,1,0-.94s-.06.06-.11,0l.12-.19c0-.07-.15-.05-.07-.18,0,0-.05.05-.06,0,.07-.67-.24-1.32-.16-2,0,.1-.05,0-.06,0s-.07,0-.1,0a2.85,2.85,0,0,0,0-.29c-.11,0-.08-.3-.18-.3l0,.08c-.14-.08-.2.23-.35.25.16.09-.09.36.12.53,0,.05-.05,0-.08,0s.1.1.09.22h0a3.94,3.94,0,0,1,0,.86l.06,0a.37.37,0,0,1,0,.14c.12.08,0-.23.11-.16-.14.13.06.57-.1.66,0,.12.08,0,.08.08l0,0,.06,0a.14.14,0,0,1-.09.14s0-.06,0-.08,0,.29,0,.33l0-.12c.06.34,0,.75.1,1.08l0,0c.06.25,0,.2,0,.47h0a.46.46,0,0,1,0,.21c0-.07-.09.13-.13,0,.06.28.05.14.17.33l-.06,0a.26.26,0,0,1,.08.21c0-.12-.09.08-.15-.05-.14.28.1.44-.09.56.14.14.1-.25.13-.17s.11.12.08.21-.21.14-.23.37c0,0,0,0,0-.05s0,.18,0,.28c.09.07,0,.14.1.17v-.22c0,.13.15.25.06.45a.23.23,0,0,1-.06-.13c0,.06,0,.12,0,.17s0-.26-.07-.4c-.06.06.06.26-.06.18.15.11,0,.22.06.4l-.07,0a.21.21,0,0,1,0,.12l-.08-.09c.06.14-.1.24-.08.36,0-.25.1,0,.16-.14.06.32-.2.15-.22.51,0,0,.07-.17.09-.09a.45.45,0,0,1-.1.18c0,.24.07,0,.1.08s0,.12,0,.23h-.08c-.08.26.14.09,0,.32l-.08-.11V34L49,34a.37.37,0,0,1,0,.31c.06,0,.13,0,.12.16s-.06-.06-.08.11c0,0-.09-.09,0-.16l-.06,0a.49.49,0,0,0,0,.28.14.14,0,0,1,0-.07l.07.26s-.05,0-.07,0,0,.09,0,.16-.11,0-.13-.14l0,.24s-.08.11-.1.08.06.33,0,.5c0,0,0,0,0,.06a1,1,0,0,0-.07.5l-.12.09c0,.15.15-.13.15.13s-.09,0-.13.11a.4.4,0,0,1,0,.41A.71.71,0,0,1,48.63,36.75Zm-.19,1.85s0-.11,0-.13S48.47,38.54,48.44,38.6Zm-.11,2.83s0-.07,0-.11A.23.23,0,0,1,48.33,41.43Zm.54,7.81h0C48.89,49.16,48.88,49.19,48.87,49.24Zm0,.17s0,0,0,0,0,0,0-.09S48.84,49.36,48.86,49.41ZM50,31.7l0,0C50,31.66,50,31.68,50,31.7Z" transform="translate(-12.68 -7.15)"/><path class="cls-1" d="M48.25,41.1h0S48.27,41.08,48.25,41.1Z" transform="translate(-12.68 -7.15)"/><polygon class="cls-1" points="36.08 28.45 36.08 28.44 36.07 28.43 36.08 28.45"/><path class="cls-1" d="M48.05,46.89a.15.15,0,0,1,0-.07S48.05,46.84,48.05,46.89Z" transform="translate(-12.68 -7.15)"/><path class="cls-1" d="M49.1,50.26l0-.11a.16.16,0,0,1,0,.1S49.09,50.22,49.1,50.26Z" transform="translate(-12.68 -7.15)"/><path class="cls-1" d="M48.81,51.23s0,0,0,.05h0C48.84,51.2,48.81,51.16,48.81,51.23Z" transform="translate(-12.68 -7.15)"/><path class="cls-1" d="M48.87,50.39c-.06,0,0,.08,0,.15h0C49,50.53,48.91,50.46,48.87,50.39Z" transform="translate(-12.68 -7.15)"/><path class="cls-1" d="M48.87,50.56a.14.14,0,0,1,0,.06S48.89,50.59,48.87,50.56Z" transform="translate(-12.68 -7.15)"/><path class="cls-1" d="M48.93,49.61s.08,0,.06,0S48.86,49.43,48.93,49.61Z" transform="translate(-12.68 -7.15)"/><polygon class="cls-1" points="36.01 43.32 36.08 43.29 36.01 43.25 36.01 43.32"/><path class="cls-1" d="M48.66,49.89V50s0,0,0,0S48.68,49.88,48.66,49.89Z" transform="translate(-12.68 -7.15)"/><path class="cls-1" d="M48.68,50s0,.08,0,.1A.54.54,0,0,0,48.68,50Z" transform="translate(-12.68 -7.15)"/><polygon class="cls-1" points="35.96 43.17 35.97 43.13 35.96 43.05 35.96 43.17"/><path class="cls-1" d="M48.53,48.61l0-.12s0,0,0,.07S48.51,48.63,48.53,48.61Z" transform="translate(-12.68 -7.15)"/><path class="cls-1" d="M48.36,49a.13.13,0,0,1,0-.07h-.09Z" transform="translate(-12.68 -7.15)"/><path class="cls-1" d="M48.3,48.65s-.09-.18-.07,0C48.26,48.64,48.29,48.77,48.3,48.65Z" transform="translate(-12.68 -7.15)"/><polygon class="cls-1" points="35.62 39.52 35.62 39.56 35.77 39.55 35.62 39.52"/><path class="cls-1" d="M47.91,44.94c0,.16.1,0,.05.18S48,45,48,45,48,44.9,47.91,44.94Z" transform="translate(-12.68 -7.15)"/><path class="cls-1" d="M48,45l0,.05Z" transform="translate(-12.68 -7.15)"/><polygon class="cls-1" points="37.06 18.41 37.06 18.3 37.03 18.38 37.06 18.41"/><path class="cls-1" d="M49.58,25.4l.09,0-.1,0S49.6,25.38,49.58,25.4Z" transform="translate(-12.68 -7.15)"/><path class="cls-1" d="M48.21,38.85h0s0,0,0-.08Z" transform="translate(-12.68 -7.15)"/><polygon class="cls-1" points="35.77 30.37 35.77 30.39 35.86 30.36 35.77 30.37"/><path class="cls-1" d="M48.5,36.38s0,.1,0,.15C48.49,36.43,48.61,36.38,48.5,36.38Z" transform="translate(-12.68 -7.15)"/><path class="cls-1" d="M49.27,36.38s0-.05,0-.07S49.28,36.4,49.27,36.38Z" transform="translate(-12.68 -7.15)"/><polygon class="cls-1" points="36.39 29.52 36.38 29.5 36.38 29.58 36.39 29.52"/><path class="cls-1" d="M48.82,36.84c.08.08.08-.07.15-.07h0l0-.08C48.91,36.75,48.87,36.84,48.82,36.84Z" transform="translate(-12.68 -7.15)"/><path class="cls-1" d="M48.55,36.74s0,0,0,0h0Z" transform="translate(-12.68 -7.15)"/><path class="cls-1" d="M48.58,36.73s0,0,0,0Z" transform="translate(-12.68 -7.15)"/><path class="cls-1" d="M48.47,36.83l0,0s-.06,0-.06,0S48.43,36.81,48.47,36.83Z" transform="translate(-12.68 -7.15)"/><path class="cls-1" d="M48.49,36.92v0S48.48,36.89,48.49,36.92Z" transform="translate(-12.68 -7.15)"/><path class="cls-1" d="M48.51,36.84l0,0s0,0,0,0S48.51,36.87,48.51,36.84Z" transform="translate(-12.68 -7.15)"/><path class="cls-1" d="M48.54,36.84s.07,0,.06,0S48.6,36.78,48.54,36.84Z" transform="translate(-12.68 -7.15)"/><path class="cls-1" d="M48.87,36.94h0v0S48.85,36.92,48.87,36.94Z" transform="translate(-12.68 -7.15)"/><path class="cls-1" d="M48.23,36.94l.06.07v0S48.25,37,48.23,36.94Z" transform="translate(-12.68 -7.15)"/><path class="cls-1" d="M48.29,37v.06S48.31,37,48.29,37Z" transform="translate(-12.68 -7.15)"/><polygon class="cls-1" points="35.87 29.87 35.88 29.76 35.86 29.88 35.87 29.87"/><polygon class="cls-1" points="35.4 29.89 35.39 29.84 35.4 29.93 35.4 29.89"/><path class="cls-1" d="M48,37.13c0-.05-.07,0-.07-.08a.16.16,0,0,0,0,.12S47.94,37.12,48,37.13Z" transform="translate(-12.68 -7.15)"/><path class="cls-1" d="M47.9,37.23s0,0,0-.06S47.9,37.2,47.9,37.23Z" transform="translate(-12.68 -7.15)"/><path class="cls-1" d="M48.21,37.1a.11.11,0,0,0-.07,0l0,0Z" transform="translate(-12.68 -7.15)"/><path class="cls-1" d="M48.19,37.11h0l0,0Z" transform="translate(-12.68 -7.15)"/><path class="cls-1" d="M48.21,37.1Z" transform="translate(-12.68 -7.15)"/><path class="cls-1" d="M48.42,37.05s0,.11,0,.12S48.42,37.11,48.42,37.05Z" transform="translate(-12.68 -7.15)"/><path class="cls-1" d="M48.28,37.15l0,0s0,0,0-.05Z" transform="translate(-12.68 -7.15)"/><polygon class="cls-1" points="35.59 30.03 35.6 30 35.58 30 35.59 30.03"/><path class="cls-1" d="M48,37.23a.1.1,0,0,1,0,.07.2.2,0,0,0,.08,0S48,37.21,48,37.23Z" transform="translate(-12.68 -7.15)"/><path class="cls-1" d="M48.1,37.18Z" transform="translate(-12.68 -7.15)"/><polygon class="cls-1" points="35.09 30.31 35.1 30.31 35.09 30.3 35.09 30.31"/><path class="cls-1" d="M48.06,37.27s0,0,0-.05a.08.08,0,0,1,0,0Z" transform="translate(-12.68 -7.15)"/><path class="cls-1" d="M47.86,37.3h0Z" transform="translate(-12.68 -7.15)"/><path class="cls-1" d="M48.08,37.17Z" transform="translate(-12.68 -7.15)"/><path class="cls-1" d="M48.08,37.17a.09.09,0,0,0,0,0s0,0,0,0Z" transform="translate(-12.68 -7.15)"/><path class="cls-1" d="M48,37.83s0-.13.05-.11-.14-.19-.24-.25a.1.1,0,0,1,0,.1s.14,0,.14,0-.06,0-.1,0,0,.13.09.21l0-.07S48,37.83,48,37.83Z" transform="translate(-12.68 -7.15)"/><path class="cls-1" d="M47.86,37.41v0a.22.22,0,0,1-.11,0,.1.1,0,0,0,0,.08l.09-.06Z" transform="translate(-12.68 -7.15)"/><path class="cls-1" d="M47.94,37.34c0,.06,0,.11.07.15s0-.07,0-.11,0-.05-.08,0l0,0h0v0s0,0,0,0h0l-.05.08S47.91,37.37,47.94,37.34Z" transform="translate(-12.68 -7.15)"/><path class="cls-1" d="M48.51,37.31h0S48.5,37.31,48.51,37.31Z" transform="translate(-12.68 -7.15)"/><path class="cls-1" d="M48.46,37.3s0,0,0,0,0,0,0,0,0-.07,0-.07h0a.18.18,0,0,1-.13,0A.45.45,0,0,0,48.46,37.3Z" transform="translate(-12.68 -7.15)"/><path class="cls-1" d="M48.21,37.33l-.05.08.07,0,0,0S48.22,37.36,48.21,37.33Z" transform="translate(-12.68 -7.15)"/><polygon class="cls-1" points="35.06 30.29 35.03 30.23 35.05 30.33 35.06 30.29"/><polygon class="cls-1" points="34.99 30.36 34.95 30.31 34.95 30.36 34.99 30.36"/><path class="cls-1" d="M44.36,39.35v0A0,0,0,0,1,44.36,39.35Z" transform="translate(-12.68 -7.15)"/><path class="cls-1" d="M44.3,39.52h0S44.3,39.51,44.3,39.52Z" transform="translate(-12.68 -7.15)"/><path class="cls-1" d="M45.87,39.31c-.07,0-.16,0-.1,0l0,0A.05.05,0,0,1,45.87,39.31Z" transform="translate(-12.68 -7.15)"/><path class="cls-1" d="M45,40.75v0a.34.34,0,0,0,0-.08Z" transform="translate(-12.68 -7.15)"/><path class="cls-1" d="M44.9,41l0-.05Z" transform="translate(-12.68 -7.15)"/><path class="cls-1" d="M44.76,38.44l0-.06S44.74,38.42,44.76,38.44Z" transform="translate(-12.68 -7.15)"/><path class="cls-1" d="M46.89,38.24l-.08,0S46.92,38.29,46.89,38.24Z" transform="translate(-12.68 -7.15)"/><path class="cls-1" d="M45,39.65l0,0S45,39.65,45,39.65Z" transform="translate(-12.68 -7.15)"/><path class="cls-1" d="M46.75,38.32h0a.21.21,0,0,1,0-.06S46.74,38.27,46.75,38.32Z" transform="translate(-12.68 -7.15)"/><path class="cls-1" d="M47.69,36.53h0Z" transform="translate(-12.68 -7.15)"/><path class="cls-1" d="M48.7,37.1h0Z" transform="translate(-12.68 -7.15)"/><path class="cls-1" d="M47.33,37.76Z" transform="translate(-12.68 -7.15)"/><path class="cls-1" d="M47.58,37.89s0,0,0,0S47.58,37.9,47.58,37.89Z" transform="translate(-12.68 -7.15)"/><path class="cls-1" d="M46.89,38.76h0S46.9,38.77,46.89,38.76Z" transform="translate(-12.68 -7.15)"/><path class="cls-1" d="M47.37,37.76h0Z" transform="translate(-12.68 -7.15)"/><path class="cls-1" d="M47.35,37.74h0S47.36,37.72,47.35,37.74Z" transform="translate(-12.68 -7.15)"/><path class="cls-1" d="M47.31,37.79l0,0a0,0,0,0,1,0,0Z" transform="translate(-12.68 -7.15)"/><path class="cls-1" d="M46.06,37.44h0S46.06,37.42,46.06,37.44Z" transform="translate(-12.68 -7.15)"/><polygon class="cls-1" points="33.37 33.02 33.37 33.02 33.36 33.02 33.37 33.02"/><path class="cls-1" d="M46,40.26c0-.07,0-.08,0-.09l-.16-.1Z" transform="translate(-12.68 -7.15)"/><path class="cls-1" d="M44.52,38.94l-.08,0c-.06-.11,0-.14-.1-.13.18.1-.08.23.1.32l0,0s0,0,0,0,.11.1,0,.18-.06,0-.08,0l0,.09s0,0,0,0l0,.12h0a1.05,1.05,0,0,0,.07.11s0,0,0,0l0,.09c-.06,0-.1-.05-.07-.11-.22,0,0,.08-.13.25a.38.38,0,0,0,0-.1c-.13.06-.1.14-.18.26,0,0,.21-.23.25-.13a.09.09,0,0,0,0,.12c-.08,0-.07.06-.06.12l-.1,0c0,.07.08,0,.13.07s-.08.13-.13.18.1-.14.14,0,0,.16.13.21,0,0-.06.08h.08s0,0,0,0,.07-.07.12,0,0,.25.13.2,0,0,0,.08a.34.34,0,0,0,.24,0l.06.08c0-.08,0-.14.12-.21h0v-.11l0,0,0-.06a.33.33,0,0,1,0,.14l0,0a.22.22,0,0,1,0,.17l0-.06,0,0a.27.27,0,0,0,0,.13,0,0,0,0,1,0,0h0l0,0,0,0V41l0,0,.13,0a3.78,3.78,0,0,0,.25-.49.47.47,0,0,0,0,.24c-.06-.07-.09.12-.17.14s0,0,0,.06a.66.66,0,0,0,.12-.17c0,.08,0,0,.08,0s.06-.18.08-.27a.1.1,0,0,1,0,.15c.12,0,0-.25.09-.22s0,0,0,0,.09-.12.1-.07v0a.52.52,0,0,0,.14-.21.12.12,0,0,0,0-.16l.13.12-.24-.4c.08.08.32.2.33.3a.07.07,0,0,0,.05-.08S46,40,46,40a.68.68,0,0,0,.2,0s-.15-.13-.13-.15.14.1.14.12l-.07-.17a.41.41,0,0,0,.16.11s.05-.06.05-.09h-.05c.08-.06-.12-.22,0-.3s.14.16.19.14-.25-.35-.24-.46l.05,0v-.09a4.51,4.51,0,0,1,.24.5c.06,0,0,0,.09,0s0,.07,0,.08l.11-.08c-.08-.06,0-.14-.08-.19v.18c-.08-.07-.17-.26-.09-.31s.12.13.15.15,0-.11,0-.1l0,.07c.06,0,0-.16.07-.14s.14,0,.09,0a1.89,1.89,0,0,1-.42-.37.89.89,0,0,1,.22,0c.09,0,.12.19.2.22s0-.06,0-.07.06.07.09,0,.07-.06,0-.07,0,0,.09-.07a.35.35,0,0,1-.12-.25.13.13,0,0,0,.07,0c.07-.06.14-.07.21-.13s.08,0,.09,0,0-.05,0-.07,0,0,.07.1,0-.11,0-.17-.08.06-.08.11a.39.39,0,0,1-.1-.35c0-.07.08,0,.08,0s-.06-.25.09-.27.11.12.16.16-.11,0-.14.06h.07s0,.07-.05.07.19-.15.32-.18,0-.08,0-.09l0,0c-.06,0,0-.11-.06-.1s0-.16.08-.18l.07.07s-.07,0-.07,0,.16,0,.11-.09h-.08c0-.07,0-.19,0-.2s0,0-.1,0c.11.08-.13.1,0,.16-.11-.06-.09,0-.21,0s.06,0,0,.06v0h0c0,.07,0,.12,0,.17s0,0,0-.05V38s-.14,0-.11-.11l0,0a.1.1,0,0,0-.11.07s0,.11,0,.05l0,.1h0c-.08.06-.07.22-.24.21a.12.12,0,0,1-.07.1l-.05,0s-.14,0-.11.11c-.14-.08-.17.13-.24.16l.05.06a.35.35,0,0,0-.07.15l0,.05c0,.07-.13.07-.19.14s0,0,0,0c-.19,0-.06.24-.21.24s0,0,0,0h0a.19.19,0,0,0,0,.08l-.07,0h0s0,0,.06.06,0,0,0,0,0,.08-.14,0c0,0,0,.13.05.23s0,0,0,0-.06,0,0,.07l-.08-.05.06.13c-.07,0-.11,0-.14-.08,0,.14,0,.08,0,.21l0,0s0,.11,0,.1-.15.17-.26.12c.07.2-.05-.07,0,.1a.27.27,0,0,1,0-.12c0,.07,0-.07-.06.11v-.13s0,.06,0,0a.24.24,0,0,1,0-.08,2.85,2.85,0,0,0-.09.4c0-.06,0-.07,0,0l0,.08c0-.06,0-.13,0-.15s-.07-.11-.13,0c0,0,0,0,0,0l-.06-.08v0c-.11.13,0,0-.07,0h0c.06-.17-.06,0,0-.17l-.07.06c-.17.11.08-.15,0-.15l-.05,0s.23-.17.26-.18h0c.1-.06-.1,0-.12,0s.14,0,.15,0-.17,0,0-.08c0,0-.09,0-.11,0s.18-.07.08-.15h0s0-.13-.06-.18c.24.07,0-.27.2-.17,0,0,0-.08,0-.11h0c.05-.05,0-.1,0-.16a0,0,0,0,1,0,0c.1-.08.09-.09,0-.23l.07,0s.18-.06.18-.2l0,0c0-.15.34-.08.16-.29v-.11c-.09.06-.07-.09-.14-.09s.14,0,.11,0h0c.09.11.13-.06.19,0a2.54,2.54,0,0,1,.51-.32l-.09-.08.06,0s.07.06,0,.08,0-.09,0-.11,0,.13.07.11l0,0h0c0-.06,0-.1,0-.13s0,0,.07,0h0l.07,0-.07-.05c0-.06.07,0,0-.1.12.09.3-.11.36-.09a.16.16,0,0,1,.13-.12s-.08-.09,0-.11c.06.2.13.05.23.16-.07-.07.13-.08,0-.18s0,.07.08.1.24,0,.36-.08,0-.06,0-.11l.1.12s0-.16.06-.08,0,0,0-.06c.27.07.54-.18.81.06,0,0,0-.06,0-.06s0-.06,0-.1l.11.11c0-.1.12,0,.14-.1l0,0c.06-.11,0-.25,0-.4-.06.13-.15-.2-.25,0,0,0,0,0,0-.08s-.05.08-.11,0h0c-.16,0-.23,0-.41-.06l0,.07s-.05,0-.07,0,.11,0,.08.12c-.07-.14-.26,0-.32-.12s0,.07,0,.08l0,0v.06s-.07,0-.08-.09,0,0,0,0-.14,0-.16,0h.06c-.15.08-.35.09-.47.22l0,0c-.08.1-.1,0-.21.07h0a.1.1,0,0,1-.07.08s-.08,0-.06-.1c-.09.11,0,.07-.06.22l0,0c0,.06,0,.08,0,.13s-.08-.06,0-.14c-.18,0-.12.19-.26.07,0,.17.14,0,.13.06s0,.13,0,.14-.16-.13-.26-.07l0,0c-.06,0,0,.09-.12.07s-.06,0,0,.13l.06-.08c0,.06,0,.21-.1.2a.14.14,0,0,1,0-.09s0,.05-.07,0,.08-.09.08-.2,0,.13-.1,0c.06.16-.1.05-.08.19l0-.06s0,.06,0,.07l0-.09c0,.09-.13,0-.15.09.09-.09.07,0,.15,0-.06.17-.19-.09-.3.05,0,0,.1,0,.09,0a.24.24,0,0,1-.12,0c-.08.08.06,0,.05.1s0,.07,0,.12l-.05-.05c-.12.06.09.13,0,.17l0-.1,0,.06-.05-.07c0,.09,0,.09-.09.12s.09.1.06.14,0-.06-.09,0,0-.1,0-.08l0-.06c-.07,0-.08.07-.1.09h0v.15s0,0,0-.05,0,.06,0,.09-.09-.08-.08-.14l0,.13s-.09,0-.1,0,0,.2-.08.24,0,0,0,0-.16.08-.13.2h-.12c0,.08.15,0,.13.13s-.1,0-.14,0,.09.17,0,.2S44.52,39,44.52,38.94Zm-.28.94s-.05-.07,0-.09S44.27,39.84,44.24,39.88Zm.86,1s0,0-.06,0A0,0,0,0,1,45.1,40.88ZM47.19,38Zm.08,0,0,0s0,0,0,0S47.26,38,47.27,37.94Zm-.75-.22h0S46.51,37.7,46.52,37.72Z" transform="translate(-12.68 -7.15)"/><path class="cls-1" d="M44.91,41s0,0,0,0S44.9,41,44.91,41Z" transform="translate(-12.68 -7.15)"/><polygon class="cls-1" points="32.09 31.3 32.09 31.3 32.08 31.29 32.09 31.3"/><path class="cls-1" d="M46.89,39.17h0S46.88,39.18,46.89,39.17Z" transform="translate(-12.68 -7.15)"/><path class="cls-1" d="M47.48,37.59l0,0s0,0,0,0S47.47,37.6,47.48,37.59Z" transform="translate(-12.68 -7.15)"/><path class="cls-1" d="M48.08,37.68s0,0,0,0l0,0S48.05,37.68,48.08,37.68Z" transform="translate(-12.68 -7.15)"/><path class="cls-1" d="M47.67,37.75s0,0,.07,0h0C47.69,37.66,47.68,37.7,47.67,37.75Z" transform="translate(-12.68 -7.15)"/><path class="cls-1" d="M47.74,37.72l0,0S47.75,37.7,47.74,37.72Z" transform="translate(-12.68 -7.15)"/><path class="cls-1" d="M47.31,37.85s-.05-.07,0-.05S47.27,37.94,47.31,37.85Z" transform="translate(-12.68 -7.15)"/><polygon class="cls-1" points="35.14 30.73 35.08 30.68 35.11 30.74 35.14 30.73"/><path class="cls-1" d="M47.59,38l0,0a0,0,0,0,1,0,0S47.57,38,47.59,38Z" transform="translate(-12.68 -7.15)"/><path class="cls-1" d="M47.64,38a.05.05,0,0,0,0,0A.05.05,0,0,0,47.64,38Z" transform="translate(-12.68 -7.15)"/><polygon class="cls-1" points="35.1 30.79 35.08 30.79 35.05 30.81 35.1 30.79"/><path class="cls-1" d="M47.17,38.37l0,.06s0,0,0,0S47.19,38.39,47.17,38.37Z" transform="translate(-12.68 -7.15)"/><path class="cls-1" d="M47.43,38.41s0,0,0,0l.06.07Z" transform="translate(-12.68 -7.15)"/><path class="cls-1" d="M47.33,38.54s0,.11,0,.05S47.38,38.52,47.33,38.54Z" transform="translate(-12.68 -7.15)"/><polygon class="cls-1" points="33.97 31.9 33.98 31.89 33.86 31.79 33.97 31.9"/><path class="cls-1" d="M46.43,39.85c.07,0-.06-.07,0-.09s0,0-.07,0S46.35,39.8,46.43,39.85Z" transform="translate(-12.68 -7.15)"/><path class="cls-1" d="M46.37,39.75v0Z" transform="translate(-12.68 -7.15)"/><polygon class="cls-1" points="36.16 30.04 36.2 30.07 36.17 30.02 36.16 30.04"/><path class="cls-1" d="M48.92,37.08v.1l0-.09S48.93,37.11,48.92,37.08Z" transform="translate(-12.68 -7.15)"/><path class="cls-1" d="M44,40.11h0a.09.09,0,0,0,0-.07Z" transform="translate(-12.68 -7.15)"/><polygon class="cls-1" points="31.61 32.1 31.61 32.12 31.7 32.13 31.61 32.1"/><path class="cls-1" d="M44.43,38.71s0,0,0,.07S44.53,38.76,44.43,38.71Z" transform="translate(-12.68 -7.15)"/><path class="cls-1" d="M56.27,21.41c-.13.1,0,.11-.06.14C56.41,21.36,56.25,21.4,56.27,21.41Z" transform="translate(-12.68 -7.15)"/><path class="cls-1" d="M58,19.41v.05c.06-.12.11-.24.16-.36Z" transform="translate(-12.68 -7.15)"/><path class="cls-1" d="M59.13,17.26c-.17.18-.32.82-.58,1.18l0,0,0,.22C58.73,18.24,59,17.6,59.13,17.26Z" transform="translate(-12.68 -7.15)"/><path class="cls-1" d="M59.76,16.08c-.06.07,0-.29-.09.3l0-.05Z" transform="translate(-12.68 -7.15)"/><path class="cls-1" d="M59.7,16.33c-.07.25.08-.16,0,0Z" transform="translate(-12.68 -7.15)"/><path class="cls-1" d="M59.93,15.14l0,.34c0-.06.09-.37.09-.25C60,14.87,60,14.94,59.93,15.14Z" transform="translate(-12.68 -7.15)"/><path class="cls-1" d="M59.9,14.8V15S59.92,14.91,59.9,14.8Z" transform="translate(-12.68 -7.15)"/><path class="cls-1" d="M59.86,15.36l0-.38s-.06,0,0,.17C59.85,15.12,59.87,15.2,59.86,15.36Z" transform="translate(-12.68 -7.15)"/><path class="cls-1" d="M59.81,15.57c-.06.18-.14.42-.09.08C59.57,16.28,59.68,16.21,59.81,15.57Z" transform="translate(-12.68 -7.15)"/><path class="cls-1" d="M59.08,17.11l-.12.22-.05.21C58.93,17.44,59.11,17.1,59.08,17.11Z" transform="translate(-12.68 -7.15)"/><path class="cls-1" d="M60.09,13s-.05.12-.08.15l0,.25A2.21,2.21,0,0,1,60.09,13Z" transform="translate(-12.68 -7.15)"/><path class="cls-1" d="M60,13.13c0-.13,0-.25-.06-.38C60,13.09,60,13.15,60,13.13Z" transform="translate(-12.68 -7.15)"/><path class="cls-1" d="M59.79,14.73c0,.21,0,.41,0,.62,0-.25,0-.49,0-.74Z" transform="translate(-12.68 -7.15)"/><path class="cls-1" d="M59.89,11.52l.1.21c-.05-.13-.1-.25-.16-.37A.52.52,0,0,1,59.89,11.52Z" transform="translate(-12.68 -7.15)"/><path class="cls-1" d="M59.62,10.58c.1.14,0-.24.08-.09a3.36,3.36,0,0,0-.35-.63A2.71,2.71,0,0,1,59.62,10.58Z" transform="translate(-12.68 -7.15)"/><path class="cls-1" d="M59.15,9.57l.2.29A3,3,0,0,0,59.15,9.57Z" transform="translate(-12.68 -7.15)"/><path class="cls-1" d="M59.88,12.11a.6.6,0,0,0,0-.31l0,.16Z" transform="translate(-12.68 -7.15)"/><path class="cls-1" d="M59.85,12h0l-.06-.32Z" transform="translate(-12.68 -7.15)"/><path class="cls-1" d="M59.89,12.14v0A0,0,0,0,0,59.89,12.14Z" transform="translate(-12.68 -7.15)"/><path class="cls-1" d="M59.91,13.75c0-.23-.09-.68-.12-.24C59.83,13.67,59.87,13.41,59.91,13.75Z" transform="translate(-12.68 -7.15)"/><path class="cls-1" d="M59.83,12.34l0,.4s0-.08.06,0Z" transform="translate(-12.68 -7.15)"/><polygon class="cls-1" points="47.11 4.99 47.15 5.18 47.14 5.04 47.11 4.99"/><path class="cls-1" d="M59.4,10.24l-.28-.52c.1.21.19.44.27.65C59.42,10.39,59.5,10.47,59.4,10.24Z" transform="translate(-12.68 -7.15)"/><path class="cls-1" d="M59.66,11.07v0S59.66,11.08,59.66,11.07Z" transform="translate(-12.68 -7.15)"/><polygon class="cls-1" points="45.06 0.87 45.08 0.9 45.09 0.9 45.06 0.87"/><path class="cls-1" d="M59.4,10.41a1.57,1.57,0,0,0,.14.35l-.15-.39S59.37,10.36,59.4,10.41Z" transform="translate(-12.68 -7.15)"/><path class="cls-1" d="M58.8,9.06l.14.28A.91.91,0,0,0,58.8,9.06Z" transform="translate(-12.68 -7.15)"/><path class="cls-1" d="M59.65,11v0C59.66,10.94,59.65,11,59.65,11Z" transform="translate(-12.68 -7.15)"/><path class="cls-1" d="M59.65,11a1.39,1.39,0,0,0-.11-.21l.11.27Z" transform="translate(-12.68 -7.15)"/><path class="cls-1" d="M57,8c.05-.06.48.12.73.42s.27-.09.06-.4c0,0,0,0-.4-.17.12.08.67.6.37.42a4.16,4.16,0,0,1-.54-.43c.16.15-.65-.2-.59,0A2.1,2.1,0,0,1,57,8S56.87,8,57,8Z" transform="translate(-12.68 -7.15)"/><path class="cls-1" d="M58.33,8.6a.49.49,0,0,1,.12.13l-.35-.49c-.24-.17-.3-.19-.33-.19a4.87,4.87,0,0,1,.61.59Z" transform="translate(-12.68 -7.15)"/><path class="cls-1" d="M58.9,9.34c-.13-.08-.38-.39-.3-.15a6,6,0,0,0,.4.5c-.4-.68.15.18-.11-.34a3.13,3.13,0,0,1,.23.37l-.18-.38v0h0s0,.05,0,0h0l0,0c-.12-.2,0,0,0,0h0a4.32,4.32,0,0,0-.5-.63C58.55,8.86,58.69,9,58.9,9.34Z" transform="translate(-12.68 -7.15)"/><path class="cls-1" d="M59.63,13.11l0,0C59.64,13,59.63,13,59.63,13.11Z" transform="translate(-12.68 -7.15)"/><path class="cls-1" d="M59.66,12.8a.84.84,0,0,1,0,.28c0,.15,0,0-.05,0s.06.37.08,0v0a3.29,3.29,0,0,1,.05-.66A1.09,1.09,0,0,0,59.66,12.8Z" transform="translate(-12.68 -7.15)"/><path class="cls-1" d="M59.46,11a6.07,6.07,0,0,0-.24-.59l.06.32,0,0C59.41,11.08,59.42,11,59.46,11Z" transform="translate(-12.68 -7.15)"/><path class="cls-1" d="M57.69,8h.12l-.39-.14Z" transform="translate(-12.68 -7.15)"/><path class="cls-1" d="M56.91,7.52l.05,0a1,1,0,0,0-.24-.05A1.63,1.63,0,0,1,56.91,7.52Z" transform="translate(-12.68 -7.15)"/><path class="cls-1" d="M37.93,17.75a.52.52,0,0,0-.17,0Z" transform="translate(-12.68 -7.15)"/><path class="cls-1" d="M39.11,18.14h0C39.09,18.12,39.06,18.12,39.11,18.14Z" transform="translate(-12.68 -7.15)"/><path class="cls-1" d="M47.35,10.33c-.13-.26-.29-.57-.32-.49v.1A2.27,2.27,0,0,1,47.35,10.33Z" transform="translate(-12.68 -7.15)"/><path class="cls-1" d="M39.62,15.5v-.08l-.09-.17Z" transform="translate(-12.68 -7.15)"/><path class="cls-1" d="M39.92,15.62c0,.12,0,.23,0,.35Z" transform="translate(-12.68 -7.15)"/><path class="cls-1" d="M32.61,20.77V21C32.71,20.69,32.63,20.8,32.61,20.77Z" transform="translate(-12.68 -7.15)"/><path class="cls-1" d="M49.86,11.38a2.76,2.76,0,0,0-.25.54C49.73,11.66,49.88,11.47,49.86,11.38Z" transform="translate(-12.68 -7.15)"/><path class="cls-1" d="M38.61,17.2c-.12,0-.17,0-.17,0S38.62,17.23,38.61,17.2Z" transform="translate(-12.68 -7.15)"/><path class="cls-1" d="M49.39,12.58l.06-.12a3.54,3.54,0,0,1,.16-.54A2,2,0,0,0,49.39,12.58Z" transform="translate(-12.68 -7.15)"/><path class="cls-1" d="M40.4,34.51l.05,0Z" transform="translate(-12.68 -7.15)"/><path class="cls-1" d="M47.44,33.11l-.24.21A2.46,2.46,0,0,0,47.44,33.11Z" transform="translate(-12.68 -7.15)"/><path class="cls-1" d="M53.42,7.58c.17-.07,0,0,0,0Z" transform="translate(-12.68 -7.15)"/><path class="cls-1" d="M54.34,7.56s-.06,0-.06,0Z" transform="translate(-12.68 -7.15)"/><path class="cls-1" d="M49.4,14.36h0S49.42,14.33,49.4,14.36Z" transform="translate(-12.68 -7.15)"/><path class="cls-1" d="M53.69,7.5l-.23.07Z" transform="translate(-12.68 -7.15)"/><path class="cls-1" d="M53.65,7.49l.15,0S53.8,7.42,53.65,7.49Z" transform="translate(-12.68 -7.15)"/><path class="cls-1" d="M53.19,7.68a1.53,1.53,0,0,1,.27-.11h0A1.57,1.57,0,0,0,53.19,7.68Z" transform="translate(-12.68 -7.15)"/><path class="cls-1" d="M39.67,26.89h0C39.87,26.83,39.8,26.85,39.67,26.89Z" transform="translate(-12.68 -7.15)"/><polygon class="cls-1" points="30.54 1.62 30.56 1.62 30.54 1.62 30.54 1.62"/><path class="cls-1" d="M42.66,8.86a.91.91,0,0,1,.56-.09L43,8.59A1.88,1.88,0,0,0,42.66,8.86Z" transform="translate(-12.68 -7.15)"/><path class="cls-1" d="M35,18l.38-.09c-.41.26-.7.38-.35.3,0-.1.32-.27.69-.36s.75-.13.78-.23l.26,0-.16,0c.51.09.39-.17,1.06-.05.24,0,.39.13.23.11a4.67,4.67,0,0,1,.52.08c.14.05.1.07-.05,0a6.86,6.86,0,0,1,.76.27h0a2.34,2.34,0,0,1,.5.14c.17.12-.1,0-.07,0l.42.19c.12.15-.21,0-.48-.17.25.38.37.12,1,.77l-.34-.24c.14.25.42.42.69.8,0-.11-.56-.77-.17-.49.09.11.23.22.42.4,0,.05.15.21.33.47l-.09,0c.23.25.25.2.39.35a.67.67,0,0,1,.14.55c.24.54-.07-.41.24.19l.58-.37,0,0c-.32-.41-.59-.66-1-1.14-.18-.33.08,0,0-.11l-.24-.22c0-.07,0-.06,0-.06-.17-.22-.1,0-.35-.32-.15-.06-.3-.85-.61-1.3,0-.13.08,0,.09,0L40,16.48c0-.17-.06-.34-.08-.51,0,.38-.19-.06-.34-.47,0,.14,0,.26,0,.34-.06-.22-.13-.44-.19-.67s0,0,.11.08l-.05-.12c0-.25.07-.13.15,0v.26c.1.15.19.29.24.25a1,1,0,0,1-.07-.22s0,.07.05.05a.83.83,0,0,0-.08-.2l.08-.17-.05,0c0-.29,0-.59,0-.88A5,5,0,0,1,39.5,12c0,.26.12.08.21.11a3.47,3.47,0,0,0-.08,1.28c0-.27,0-.21.07-.14a5.66,5.66,0,0,1,0-.92c.07,0,.07-.19.16-.41-.2.14,0-.69.15-1,.07,0,.06.1-.08.52.25-.43,0-.67.36-1.07-.05.1-.09.15-.08.2.07-.26.47-.75.42-.6l-.07.09a3.9,3.9,0,0,1,1-.92c.39-.25.78-.36.82-.44a.6.6,0,0,1-.09.21,3.37,3.37,0,0,1,1.29-.52c-.13.1.27.4-.32.41l.73.1c-.11,0-.26-.21-.1-.19.41.22.3.12.78.4C44.49,9,44.74,8.9,45,9c0,0,0,.16-.15.14a4.5,4.5,0,0,1,.7.18c-.17-.07-.1.11,0,.23a3.35,3.35,0,0,1,.62.47c-.06-.07-.12-.15-.19-.22.57.53.75.35,1.23,1-.09-.06-.3-.07-.1.28a2.94,2.94,0,0,1,1.14,1.17v.15c.09.17.17.34.25.51-.23-.3-.85-1.1-1.2-1.48a1.77,1.77,0,0,0,.2.49c0,.16-.17-.18-.24-.29a7.8,7.8,0,0,1,.4.94c.09-.08.37.71.43.66a10.85,10.85,0,0,0-.49-1c.07-.09.53.49.72,1.23,0,.2-.21-.09-.24-.06a2.81,2.81,0,0,1,.25.74l-.13-.29c.06.41.29.63.3,1.15,0,.17,0,.53,0,.55.06-.3.4-.42.52-.25a10,10,0,0,1,0,1.15c0,.3-.28-.4-.32-.14,0,0,.09.16.11.22s0,.06,0,.07l-.69.86,1.1-.86s0,.05.08-.25c-.09-.08.12-.81-.06-.2,0-.39.08-.41.14-.87-.09.14-.16-.44-.12-.84,0,0,.07,0,.09-.09a17.31,17.31,0,0,1,.52-1.92c0-.06.19-.39.18-.23a1.44,1.44,0,0,1,.1-.43c.24-.38-.17.48,0,.21a3.23,3.23,0,0,1,.25-.89c-.13.05-.34.68-.4,1-.12,0-.07-.63.25-1.38.29-.57.21-.2.25-.3.66-1,.39-1,1.19-1.66.36-.19.11.12.22.11a9.74,9.74,0,0,0-.83.77c.09-.11.21-.2.31-.3-.1.14-.3.41-.42.55.13-.11.42-.51.85-.88a4.66,4.66,0,0,1,1.4-.87c.13-.11.38-.22.24-.21l-.26.13c-.27,0,.47-.31.12-.19a3,3,0,0,1,1.33-.45l.11.08a1,1,0,0,0-.52.06c.23-.11.86,0,1.11-.11l-.4-.06a2.84,2.84,0,0,1,1.44,0c-.21-.16-.12,0-.47-.21.15.09-.18,0-.49,0s-.59,0-.33.07a3.51,3.51,0,0,0-1.16,0s.18,0-.24.11c0,0-.06,0-.08.06h0a.71.71,0,0,1,.23,0c-.2.1-.81.38-1,.51s.07-.08-.06,0l-.27.22c-.06-.05-.62.27-.14-.09-.16.09-.3.2-.45.3a2.84,2.84,0,0,0-.78.66c-.19.18-.37.54-.27.33-.17.24-.32.47-.46.71h0a18.11,18.11,0,0,0-1.06,2.38c-.07.27-.12.54-.24,1l-.08.07a7.17,7.17,0,0,0-.22,1.17,6.67,6.67,0,0,0-.32,1.84l.95,0-.06-.38H49.4c-.07-.41-.16-.8-.29-1.3l-.06,0c-.14-.42-.19-1.13-.41-1.81a1,1,0,0,1,.11.34,8.56,8.56,0,0,0-1-2.38,2.22,2.22,0,0,1-.26-.4l0,0,0-.07-.13-.24.1.2a2.94,2.94,0,0,0-.4-.46V9.94l0,0c-.14-.18-.15-.11-.11,0l-.24-.18c0-.21-.47-.36-.6-.6-.14-.06-1-.55-1.17-.45,0,0-.06-.06,0,0a2,2,0,0,0-.68-.23l-.08-.12a5.15,5.15,0,0,0-.56,0c-.32-.08-.47-.12-.13-.17a3.41,3.41,0,0,0-1.32.25l0-.06c-.25.05-.58.28-.73.31a2.86,2.86,0,0,0-1.34,1.09,6.72,6.72,0,0,0-.93,2.17c.21-.24-.18.62,0,.7,0,.07-.08.26-.1,0a4.67,4.67,0,0,0,.06,1.54c0,.08-.07-.14-.09-.07a1.35,1.35,0,0,1,0,.29c0,.08-.05-.09-.08-.2.08.71.24.76.36.79a1.39,1.39,0,0,0,.18.78c0,.12,0,.34-.11-.09a4.63,4.63,0,0,0,.47,1.46,1.51,1.51,0,0,0,.15.39,7.55,7.55,0,0,0,.48,1l-.06-.14c.2.13.23.38.47.75h0c.48.89.26.35.77,1.2l0-.09c.14,0,.34.42.64.79L43,22l-.42-1.06a2.46,2.46,0,0,0-.19-.4l0,.2c-.16-.26-.23-.88-.43-1.16,0-.07.08.08.15.15-.45-.74-.13,0-.56-.51,0-.12.2,0-.08-.3a13.82,13.82,0,0,0-1.48-1.08c.09.09.17.19-.09.07a3.66,3.66,0,0,0-1.47-.66c-.06,0-.08,0-.07-.05a4.21,4.21,0,0,0-1.33-.09,1.71,1.71,0,0,0-1.18,0c-.48.11-.89.31-.93.2a4.82,4.82,0,0,0-1,.51v0a2.2,2.2,0,0,0-.82.82c-.12.1-.06,0-.06,0a3.14,3.14,0,0,0-1,1.62l-.1.05a4.82,4.82,0,0,0-.49,2.35s0,0,0-.11a6.66,6.66,0,0,0,.34,1.78c.22.55.52,1,.76,1a4.88,4.88,0,0,0,.55.47c-.65-.65.18,0-.06-.28.25.24.65.65.29.39l0-.05c-.11,0,.1.19.35.37s.52.34.49.37a8.74,8.74,0,0,0,5.12.88l-.2-.09.58-.07c.15,0,.21.06-.2.11a1.34,1.34,0,0,0,.69-.18c.81-.09-.29.18-.05.14l.34-.06h-.08a3.18,3.18,0,0,1,.76-.23c.32-.05.18,0,.3,0s0,0,.18,0l.71-.15-.3,0a2,2,0,0,1,.3-.09l-.12-.43c-.17.07-.25.09,0,.08a4.48,4.48,0,0,0-1.52.55,9.1,9.1,0,0,0-1.22.82,12.13,12.13,0,0,0-1,1.15c.1-.1.21-.12,0,.28-.1-.27-.52.74-.72,1.11.1-.16,0,.18,0,.51s0,.63.05.36c0,.41-.08,0-.13.33A5.47,5.47,0,0,0,38,33.15a3.41,3.41,0,0,0,1.13,1.44s-.11-.17.12,0,.32.31.5.45.26,0,.64.2c0,0-.13-.1,0-.06a5.22,5.22,0,0,0,3.55,0,14.52,14.52,0,0,0,3.15-1.71c-.29.16-.12,0,.06-.13-.13.09,0-.06-.08-.06l.8-.57c.07-.19.76-.72.76-.86l-.21.22c.22-.36-.58.22-.64.07-.25.4-1,.66-1.47,1.25-.15.07.08-.12,0-.1a1.85,1.85,0,0,1-.64.52l0,0A6.13,6.13,0,0,1,43,34.81l.1,0a2,2,0,0,1-.46,0c-.3.15.76-.1.5,0-.2,0-.68,0-1.15,0a1.91,1.91,0,0,1-1-.23c-.4-.09.1.12-.3,0l-.1-.08-.11,0c-.26-.11-.36-.21-.35-.25a1.7,1.7,0,0,0,.24.09,6.26,6.26,0,0,1-.93-.54,2.17,2.17,0,0,0,.29.24,3,3,0,0,1-1.17-1.27,4.13,4.13,0,0,1-.34-1.7l0,.08a2,2,0,0,1,.11-.76c.06-.17.11-.35.29-.78v0a2.06,2.06,0,0,1,.3-.62c-.1.21.31-.32.17,0,.51-.76.23-.39.58-.92l.14-.05a1.68,1.68,0,0,1,.5-.51c-.29.26.3-.1,0,.2.86-.45,1.22-.84,1.71-.84.37-.32-.83.24-.6.12-.22.05.3-.27.61-.36a1.31,1.31,0,0,1,.41-.06l-.09-.34a4.14,4.14,0,0,0-1,.1l.17,0a9.6,9.6,0,0,1-1,.19c-.19.13-.48.07-.52.2l.73-.16a5,5,0,0,1-1.49.34,2.49,2.49,0,0,1,.4-.12c-.21,0-.39.07-.6.05,0-.12.89-.12,1.33-.3-.23,0-.84.22-.63.06-.3.2-.79.08-1.32.23l0-.07a3.23,3.23,0,0,1-.42.05l.28-.1a5.17,5.17,0,0,1-1.25-.06c.87.06.19.1.56.18a1.57,1.57,0,0,1-.86-.13,3.57,3.57,0,0,0-.91-.29c.15,0,.58.18.32.16a2.82,2.82,0,0,1-.61-.25c-.74-.26.08.11-.24,0s-.38-.11-.71-.24l0-.07c-.75-.48-.29,0-.94-.48l.34.12c-.12-.07-.24-.14-.35-.22h.12a2.29,2.29,0,0,1-.75-.7c0,.11-.15.05-.37-.29s.12.1-.15-.38a.79.79,0,0,1,.28.41s.11.08.14.08c-.13-.25-.35-.6-.43-.78a1,1,0,0,0,.08.2,3,3,0,0,1-.36-.71c0-.13,0,0,.08.06a3,3,0,0,1-.14-.49c.07.05.11,0,.21.34a4.43,4.43,0,0,1-.17-.72c0-.06.08-.39.1-.29a4.35,4.35,0,0,1,.24-1.55.66.66,0,0,1,0-.2,11.21,11.21,0,0,1,.86-1.36l.32-.19c.34-.34-.45.23.12-.35.44-.38.23-.06.41-.15a1.87,1.87,0,0,1,1.11-.64Zm5.65,1.11c-.09-.07-.31-.17-.35-.27C40.49,18.89,40.56,19,40.69,19.13ZM39.6,14.54a1.11,1.11,0,0,1,0,.4A1.64,1.64,0,0,1,39.6,14.54ZM51.74,8.67v0C51.5,8.87,51.58,8.8,51.74,8.67Zm.51-.35s0-.05,0,0a1.8,1.8,0,0,1-.27.21A.68.68,0,0,0,52.25,8.32ZM41.57,27h-.12C41.7,27,41.63,27,41.57,27Z" transform="translate(-12.68 -7.15)"/><path class="cls-1" d="M39.89,15.61a.16.16,0,0,1,0,.06S39.89,15.71,39.89,15.61Z" transform="translate(-12.68 -7.15)"/><path class="cls-1" d="M32.61,20.73h0s0,0,0,0Z" transform="translate(-12.68 -7.15)"/><path class="cls-1" d="M48.76,16.55a.83.83,0,0,1,0-.23S48.73,16.37,48.76,16.55Z" transform="translate(-12.68 -7.15)"/><path class="cls-1" d="M55.31,7.15l-.41,0a1.05,1.05,0,0,1,.37,0S55.18,7.16,55.31,7.15Z" transform="translate(-12.68 -7.15)"/><path class="cls-1" d="M58.15,8.91l.11.13,0,0C58.13,8.82,58,8.73,58.15,8.91Z" transform="translate(-12.68 -7.15)"/><path class="cls-1" d="M55.67,7.41c0,.06.27,0,.54.11h-.05C56.26,7.45,56,7.39,55.67,7.41Z" transform="translate(-12.68 -7.15)"/><path class="cls-1" d="M56.27,7.53a1,1,0,0,1,.25.07S56.42,7.55,56.27,7.53Z" transform="translate(-12.68 -7.15)"/><path class="cls-1" d="M52.89,7.88c.13,0,0-.11.12-.12S52.28,8.27,52.89,7.88Z" transform="translate(-12.68 -7.15)"/><polygon class="cls-1" points="43.19 0.48 43.1 0.39 42.95 0.44 43.19 0.48"/><path class="cls-1" d="M53.81,7.8l.41-.1s0,0,.11,0A3.13,3.13,0,0,0,53.81,7.8Z" transform="translate(-12.68 -7.15)"/><path class="cls-1" d="M54.33,7.65a1.59,1.59,0,0,0,.33-.08Z" transform="translate(-12.68 -7.15)"/><path class="cls-1" d="M55.3,7.62l-.13,0-.29,0Z" transform="translate(-12.68 -7.15)"/><path class="cls-1" d="M50.48,10.73c-.06.14-.13.27-.18.42s.06-.06.13-.21S50.54,10.68,50.48,10.73Z" transform="translate(-12.68 -7.15)"/><path class="cls-1" d="M51.41,9.7a.47.47,0,0,1-.16.12l.06.07Z" transform="translate(-12.68 -7.15)"/><path class="cls-1" d="M50.71,10.79c0,.06-.23.61,0,.11C50.72,10.84,50.93,10.45,50.71,10.79Z" transform="translate(-12.68 -7.15)"/><polygon class="cls-1" points="36.22 8.66 36.24 8.78 36.39 8.73 36.22 8.66"/><path class="cls-1" d="M46.48,10.5c.28.41.16,0,.39.42.1.08-.19-.33-.09-.25C46.55,10.46,46.46,10.33,46.48,10.5Z" transform="translate(-12.68 -7.15)"/><path class="cls-1" d="M46.78,10.67l.11.12Z" transform="translate(-12.68 -7.15)"/><polygon class="cls-1" points="35.77 25.14 36.05 24.93 35.85 25.05 35.77 25.14"/><path class="cls-1" d="M48.86,31.75H49l.09-.21A1,1,0,0,1,48.86,31.75Z" transform="translate(-12.68 -7.15)"/><path class="cls-1" d="M41.18,19.91h0c0-.06-.06-.11-.16-.23Z" transform="translate(-12.68 -7.15)"/><polygon class="cls-1" points="24.83 10.62 24.9 10.63 24.78 10.53 24.83 10.62"/><path class="cls-1" d="M34.21,18.75l.36-.28C34.33,18.67,34.11,18.68,34.21,18.75Z" transform="translate(-12.68 -7.15)"/><path class="cls-1" d="M50,31.33c0-.07-.08,0-.09,0S50,31.32,50,31.33Z" transform="translate(-12.68 -7.15)"/><polygon class="cls-1" points="38.17 25.34 38.14 25.33 38.3 25.48 38.17 25.34"/><path class="cls-1" d="M51.55,33.63c0-.16-.27-.4-.36-.62v0l-.13,0A6.59,6.59,0,0,1,51.55,33.63Z" transform="translate(-12.68 -7.15)"/><path class="cls-1" d="M51.77,34.35c0-.06.12.11-.09-.14v0Z" transform="translate(-12.68 -7.15)"/><path class="cls-1" d="M51.69,34.24c-.08-.12,0,.1,0,0Z" transform="translate(-12.68 -7.15)"/><path class="cls-1" d="M52.11,34.75,52,34.63s.11.18,0,.14C52.15,34.91,52.15,34.87,52.11,34.75Z" transform="translate(-12.68 -7.15)"/><path class="cls-1" d="M52.28,34.85l-.07-.07S52.22,34.82,52.28,34.85Z" transform="translate(-12.68 -7.15)"/><path class="cls-1" d="M52.05,34.64l.16.14s0-.06-.07-.07S52.13,34.69,52.05,34.64Z" transform="translate(-12.68 -7.15)"/><path class="cls-1" d="M52,34.53c0-.1-.12-.21,0-.08C51.8,34.17,51.77,34.25,52,34.53Z" transform="translate(-12.68 -7.15)"/><path class="cls-1" d="M51.69,33.62l0-.13-.1-.08C51.59,33.45,51.66,33.65,51.69,33.62Z" transform="translate(-12.68 -7.15)"/><path class="cls-1" d="M52.85,35.69s0-.09,0-.12l-.12-.09C52.78,35.55,52.86,35.66,52.85,35.69Z" transform="translate(-12.68 -7.15)"/><path class="cls-1" d="M52.86,35.57l.17.12C52.9,35.56,52.87,35.54,52.86,35.57Z" transform="translate(-12.68 -7.15)"/><polygon class="cls-1" points="39.72 27.64 39.44 27.43 39.76 27.69 39.72 27.64"/><polygon class="cls-1" points="40.76 29.1 40.63 29.06 40.84 29.14 40.76 29.1"/><path class="cls-1" d="M53.86,36.59c-.1,0,.06.13,0,.1a1.88,1.88,0,0,0,.37.16A1.25,1.25,0,0,1,53.86,36.59Z" transform="translate(-12.68 -7.15)"/><path class="cls-1" d="M54.38,36.91l-.19-.06A.6.6,0,0,0,54.38,36.91Z" transform="translate(-12.68 -7.15)"/><path class="cls-1" d="M53.28,36s0,.07.08.16l0-.1Z" transform="translate(-12.68 -7.15)"/><path class="cls-1" d="M53.34,36h0l.13.12Z" transform="translate(-12.68 -7.15)"/><path class="cls-1" d="M53.27,35.94h0S53.28,35.94,53.27,35.94Z" transform="translate(-12.68 -7.15)"/><path class="cls-1" d="M52.7,35.25c.11.07.31.22.19,0C52.79,35.22,52.87,35.35,52.7,35.25Z" transform="translate(-12.68 -7.15)"/><path class="cls-1" d="M53.25,35.81l-.15-.17s0,.06-.05,0Z" transform="translate(-12.68 -7.15)"/><polygon class="cls-1" points="40.66 28.71 40.57 28.65 40.62 28.71 40.66 28.71"/><path class="cls-1" d="M54.09,36.64a1.71,1.71,0,0,1,.29.16l-.31-.24S54,36.56,54.09,36.64Z" transform="translate(-12.68 -7.15)"/><path class="cls-1" d="M53.72,36.34h0S53.72,36.33,53.72,36.34Z" transform="translate(-12.68 -7.15)"/><polygon class="cls-1" points="42.76 30.2 42.75 30.18 42.74 30.19 42.76 30.2"/><path class="cls-1" d="M54.06,36.54a.46.46,0,0,0-.18-.11l.19.13S54.08,36.55,54.06,36.54Z" transform="translate(-12.68 -7.15)"/><path class="cls-1" d="M54.68,37.06l-.12-.12C54.59,37,54.66,37.07,54.68,37.06Z" transform="translate(-12.68 -7.15)"/><path class="cls-1" d="M53.75,36.38h0S53.76,36.4,53.75,36.38Z" transform="translate(-12.68 -7.15)"/><path class="cls-1" d="M53.75,36.38a.43.43,0,0,0,.13,0l-.14-.08S53.75,36.37,53.75,36.38Z" transform="translate(-12.68 -7.15)"/><path class="cls-1" d="M55.91,37.08c0,.06-.29,0-.45-.12s-.17.2,0,.37c0,0,0,0,.24,0-.07-.05-.42-.26-.23-.24s.21.11.33.19c-.09-.11.38,0,.35-.11l-.24,0S56,37.12,55.91,37.08Z" transform="translate(-12.68 -7.15)"/><path class="cls-1" d="M55,37.15l-.09,0a1.4,1.4,0,0,1,.26.21c.15,0,.19,0,.21,0L55,37.15Z" transform="translate(-12.68 -7.15)"/><path class="cls-1" d="M54.59,36.92c.09,0,.3.06.21-.06s-.18,0-.34-.11c.38.21-.12,0,.13.16l-.21-.11.18.14h0s0,0,0,0h0c.1.07,0,0,0,0h0l.4.19A4,4,0,0,0,54.59,36.92Z" transform="translate(-12.68 -7.15)"/><path class="cls-1" d="M53.14,35.32s0,0,0,0S53.17,35.36,53.14,35.32Z" transform="translate(-12.68 -7.15)"/><path class="cls-1" d="M53.23,35.47a.22.22,0,0,1-.13-.09c0-.07,0,0,0,0s-.18-.12-.07,0l0,0c.1.14.21.34.18.33A.68.68,0,0,0,53.23,35.47Z" transform="translate(-12.68 -7.15)"/><path class="cls-1" d="M53.88,36.22a1.89,1.89,0,0,0,.3.19l-.11-.15,0,0C53.9,36.16,53.91,36.22,53.88,36.22Z" transform="translate(-12.68 -7.15)"/><path class="cls-1" d="M55.47,37.4l-.07,0h.23Z" transform="translate(-12.68 -7.15)"/><path class="cls-1" d="M55.92,37.55l0,.05H56Z" transform="translate(-12.68 -7.15)"/><path class="cls-1" d="M63.08,27.08l.08-.06Z" transform="translate(-12.68 -7.15)"/><path class="cls-1" d="M62.43,27.32v0S62.46,27.32,62.43,27.32Z" transform="translate(-12.68 -7.15)"/><path class="cls-1" d="M61.83,30.53c0-.17,0-.36,0-.32l0,.07A.79.79,0,0,1,61.83,30.53Z" transform="translate(-12.68 -7.15)"/><path class="cls-1" d="M56.71,27.15l0,0h-.11Z" transform="translate(-12.68 -7.15)"/><path class="cls-1" d="M56.93,27l.15.12Z" transform="translate(-12.68 -7.15)"/><path class="cls-1" d="M65.79,24.57v-.13C65.71,24.59,65.77,24.54,65.79,24.57Z" transform="translate(-12.68 -7.15)"/><path class="cls-1" d="M60.63,36.87a1,1,0,0,0,.29-.2C60.78,36.77,60.63,36.8,60.63,36.87Z" transform="translate(-12.68 -7.15)"/><path class="cls-1" d="M63.08,27.83c.06,0,.08-.06.07-.07S63.07,27.82,63.08,27.83Z" transform="translate(-12.68 -7.15)"/><path class="cls-1" d="M61.2,36.37l-.06.05a2.32,2.32,0,0,1-.22.25A.63.63,0,0,0,61.2,36.37Z" transform="translate(-12.68 -7.15)"/><path class="cls-1" d="M59.75,17.56h0Z" transform="translate(-12.68 -7.15)"/><path class="cls-1" d="M56.19,19.85l.1-.15Z" transform="translate(-12.68 -7.15)"/><path class="cls-1" d="M57.81,37.86c-.1,0,0,0,0,0Z" transform="translate(-12.68 -7.15)"/><path class="cls-1" d="M57.34,37.59l0,0Z" transform="translate(-12.68 -7.15)"/><path class="cls-1" d="M61.4,35.32h0Z" transform="translate(-12.68 -7.15)"/><path class="cls-1" d="M57.66,37.83l.13,0Z" transform="translate(-12.68 -7.15)"/><path class="cls-1" d="M57.68,37.86h-.09S57.59,37.87,57.68,37.86Z" transform="translate(-12.68 -7.15)"/><path class="cls-1" d="M58,37.85h0Z" transform="translate(-12.68 -7.15)"/><path class="cls-1" d="M66.16,18.42v0C66.09,18.33,66.11,18.36,66.16,18.42Z" transform="translate(-12.68 -7.15)"/><polygon class="cls-1" points="47.4 21.52 47.41 21.52 47.4 21.51 47.4 21.52"/><path class="cls-1" d="M59.83,28.46a.38.38,0,0,1,.25.2l.07-.2C60.05,28.45,59.93,28.46,59.83,28.46Z" transform="translate(-12.68 -7.15)"/><path class="cls-1" d="M64.48,26.2l-.21.09c.15-.24.32-.33.11-.27.11.2-.68.52-.6.7l-.15,0,.07-.05c-.3.05-.11.24-.47.38-.13,0-.22.05-.15,0l-.25.16c-.08,0-.07,0,0,0l-.42.16h0a1.5,1.5,0,0,1-.24.18c-.12,0,0,0,0-.06l-.23.11c-.11,0,.07-.12.24-.16-.28-.15-.18.12-.7.09l.22-.06c-.17-.09-.33,0-.6-.05.06,0,.54.09.29.19a.73.73,0,0,0-.32.06c0-.07-.15,0-.32,0v-.09c-.18.05-.17.09-.28.13a.32.32,0,0,1-.31-.14c-.33,0,.24.13-.17.14a3.77,3.77,0,0,0-.83,0c-.19-.06.05-.06,0-.09l-.19.05s0,0,0,0c-.15,0,0,.09-.27.07s-.44-.26-.75-.23c-.06-.05,0-.05,0-.09a4.76,4.76,0,0,0-.68-.08l-.23-.18c.16.15-.12.12-.37.07l.13.16-.37-.14s0-.05.1-.05l-.08,0c-.1-.1,0-.11.1-.11l.09.12c.11,0,.22,0,.23-.08a.21.21,0,0,1-.12,0s.05,0,0,0l-.11,0,0-.14,0,0-.23-.18-.1.54h.18a1.89,1.89,0,0,1,1.17-.29c-.15.05,0,.12-.07.21-.13-.12-.42,0-.68,0,.14,0,.11.06.07.07a2.63,2.63,0,0,1,.49,0c0,.07.09.06.21.12-.06-.17.38,0,.59,0,0,.05-.07.07-.3,0,.22.19.39-.05.61.14-.06,0-.09,0-.12,0,.15,0,.45.21.35.21l0,0c.36.19,1,.7,1.11.67a.75.75,0,0,1-.18.07,4.28,4.28,0,0,1,.81.27c-.12,0-.18.37-.43.15a1.07,1.07,0,0,0,.25.32c0-.06,0-.23.1-.16a3,3,0,0,0,.12.5c0-.1.17-.1.25,0s-.14.1-.19.06a4,4,0,0,1,.34.27c-.08-.08-.14,0-.15.14,0-.05.14.31.2.4l0-.17c.14.41.39.32.52.75,0,0-.25-.06-.2.16a1.6,1.6,0,0,1,.67.73l0,.09.11.3-.7-.9c0,.17-.05.06,0,.3,0,.09-.09-.12-.11-.18l.09.55c.1,0,.16.42.24.38-.06-.2-.13-.4-.2-.59.09-.05.36.3.38.72,0,.11-.18-.06-.22,0a1.08,1.08,0,0,1,.08.42l-.07-.17c0,.23.16.37.05.64,0,.09-.14.27-.08.29.12-.14.48-.16.56-.05a2.47,2.47,0,0,1-.23.61c-.12.14-.18-.26-.28-.14s0,.1,0,.13-.07,0-.1.16c.09.05-.11.42.06.12,0,.21-.07.21-.14.44.09,0,.14.29.07.5,0,0-.07,0-.1,0a3.81,3.81,0,0,1-.65.86s-.21.13-.18,0a.55.55,0,0,1-.13.2c-.24.09.2-.19,0-.15,0,.06-.19.26-.31.4.09,0,.35-.23.44-.39.09.09,0,.42-.4.72s-.18,0-.22.06c-.61.26-.45.45-1,.51-.23,0,0-.15-.1-.2.27-.08.43-.06.62-.13l-.24,0a1.09,1.09,0,0,1,.35-.15,5.42,5.42,0,0,1-1.56.25c-.09,0-.24.07-.17.1l.16,0c.15.06-.3.11-.1.13a1.6,1.6,0,0,1-.77,0l-.05-.1s.19.08.28.06c-.13,0-.45-.17-.6-.09l.2.11a2.11,2.11,0,0,1-.78,0c.1.12.06,0,.23.16-.14-.16.71.14.46,0,.18.15.34.1.61.22,0,0-.1-.06.14,0l0,0h0a.27.27,0,0,1-.12,0c.12-.05.49-.06.62-.11s-.06,0,0,.07l.18-.07c0,.06.39.06.06.14l.3,0a1.32,1.32,0,0,0,.57-.11c.14,0,.32-.19.22-.1a3.55,3.55,0,0,0,.43-.23v0a11.41,11.41,0,0,0,1.21-.92,4.87,4.87,0,0,1,.35-.49h.08c.09-.18.35-.52.32-.63.25-.15.36-.95.41-1.29l-.07,0a3.35,3.35,0,0,0,0-.78l-.07,0c-.05-.25,0-.65,0-1a.37.37,0,0,1,0,.2c.11-.51-.26-1-.26-1.42a.56.56,0,0,1-.08-.25v0a1.48,1.48,0,0,0-.13-.31l0-.07v0c0-.12-.06-.08-.09,0l-.1-.13c.07-.14-.16-.29-.1-.46-.09-.05-.33-.54-.48-.52,0,0,0-.05,0,0a1.06,1.06,0,0,0-.22-.33l0-.1-.27-.17c-.07-.17-.1-.25.07-.15a3.12,3.12,0,0,0-.6-.45l.06,0c-.1-.09-.31-.17-.34-.26a2.2,2.2,0,0,0-.76-.57,7.32,7.32,0,0,0-1.23-.49c.12.19-.35-.14-.41,0,0,0-.15-.08,0-.1-.4,0-.62-.07-.89.08-.06,0,.08-.07,0-.09s-.12.06-.17,0,.05-.05.12-.08a1.48,1.48,0,0,0-.25.08l-1,.45.91.28a.25.25,0,0,0,.32-.08.46.46,0,0,0,.4.19c0,.07.14.15-.09.06.12.07.75.41.8.31s.18.07.21.08c.29.1.32.11.61.19l-.07,0c.14-.08.25,0,.49.07h0c.53.18.24,0,.78.17l0-.08c.06-.15.48.14.81.07l-.12,0c.17-.06.49.21.68.21s-.06,0-.12,0c.48.05.06-.1.4-.15.07,0-.07.13.17.12s.65-.27,1-.27c-.08,0-.16,0,0-.11s.68-.06.85-.25c0,0,0,0,0,0a2.5,2.5,0,0,0,.61-.42c.29.16.92-.72,1-.54a5.48,5.48,0,0,0,.44-.4v0a.93.93,0,0,0,.37-.52c.07-.06.05,0,.05,0a1.64,1.64,0,0,0,.56-.89h.09a4.55,4.55,0,0,0,.6-1.17.24.24,0,0,1,0,.07c.15-.58.6-1.35.35-1.62l0-.4c-.08.5-.11-.08-.18.12,0-.19.12-.5.13-.26l0,0c.14.1.07-.62.17-.61a6.87,6.87,0,0,0-.62-2.86l0,.14c0-.1-.1-.19-.15-.29s0-.14.13.07c0-.14-.24-.32-.27-.32-.2-.42.21.09.13,0l-.1-.16v0a1.18,1.18,0,0,1-.34-.32c-.09-.16,0-.12,0-.18L66,17.22c-.09-.11-.19-.22-.29-.32l.06.18c-.16-.1-.29-.28-.21-.07a1.65,1.65,0,0,0-.69-.62,6.43,6.43,0,0,0-.78-.31c-.27,0-.52,0-.84-.07.08,0,.12.12-.15.1.1-.21-.49-.09-.73-.19.21.06-.76.15-.43.24-.22,0,0-.08-.21-.08a13.41,13.41,0,0,0-1.74.6s.12,0,0,.11l-.38,0c-.1.08,0,.19-.28.23,0,0,.1,0,0,.06a13.07,13.07,0,0,0-3.05,2.48c.15-.11.09,0,0,.1.07-.06.05,0,.09.05-.14.12-.26.26-.4.39,0,.13-.31.5-.25.6l.07-.16c0,.25.38-.14.49,0,0-.29.51-.42.62-.85.08-.05,0,.09.05.07s.08-.22.26-.37v0a5.73,5.73,0,0,1,1.25-1.06l-.09,0a.74.74,0,0,1,.24-.12c.07-.2-.35.26-.3.07.24,0,.89-.65,1.1-.57.21-.12-.1,0,.1-.16h.08l0-.08c.14-.07.23-.06.25,0l-.12.09c.2-.06.5-.28.56-.29l-.21.07a11.77,11.77,0,0,1,1.9-.76l-.06,0c.46-.15.38,0,.89-.11h0a.92.92,0,0,1,.38-.05c-.12,0,.24.09.07.13a1.88,1.88,0,0,0,.6-.1l.06.07a.55.55,0,0,1,.39,0c-.21,0,.12.13-.12.11.43.29.76.25.84.54.3,0-.31-.34-.18-.28-.07-.11.24,0,.36.14s.09.34.37.66c0,0,0,0-.07-.06.08.14.24.21.3.41.15,0,.13.22.25.19a2,2,0,0,0-.24-.33,1.48,1.48,0,0,1,.51.65l-.17-.15c0,.11.13.17.14.29s-.25-.42-.45-.58c0,.13.3.35.13.31.24.07.18.38.41.6h-.07a.62.62,0,0,1,.12.19l-.14-.11c.14.2.09.44.18.65-.13-.45.06-.13,0-.33.25.54-.07.37.07,1,0-.08,0-.33.05-.2a1.35,1.35,0,0,1,0,.37c0,.43.07-.07.13.11s0,.21.09.4h-.08c0,.5.16.14.09.59l-.09-.2,0,.24-.09-.05a1.1,1.1,0,0,1,0,.57c0-.05.13.06.08.28s0-.1-.1.21a.26.26,0,0,1,0-.29s0-.07,0-.09a2.17,2.17,0,0,0-.11.5.28.28,0,0,1,0-.11,3.54,3.54,0,0,1,0,.46c0,.06,0,0-.06-.06a1.68,1.68,0,0,1,0,.29c-.05-.05-.1-.06-.08-.25a3,3,0,0,1-.08.43s-.14.18-.14.12c-.12.19-.12.58-.33.82a.63.63,0,0,1,0,.12,4.92,4.92,0,0,0-.53.73l-.21.08c-.16.22.28-.11,0,.25s-.15,0-.25.08a1,1,0,0,1-.51.53A1.63,1.63,0,0,1,64.48,26.2Zm-3.05,1.4c.06,0,.18-.1.24-.06S61.54,27.6,61.43,27.6Zm-5.11-.54h0l.05-.3a.42.42,0,0,1,.16.12.51.51,0,0,1-.16-.11l-.05.28Zm2.6,10.61h0C59.1,37.65,59,37.66,58.92,37.67Zm-.34,0s0,0,0,0a.49.49,0,0,1,.19,0S58.68,37.67,58.58,37.71ZM66,17.29l0,.06C65.91,17.25,66,17.27,66,17.29Z" transform="translate(-12.68 -7.15)"/><path class="cls-1" d="M56.9,27a.09.09,0,0,1,0,.05S56.94,27,56.9,27Z" transform="translate(-12.68 -7.15)"/><path class="cls-1" d="M65.79,24.59h0Z" transform="translate(-12.68 -7.15)"/><path class="cls-1" d="M61.51,34.05a.61.61,0,0,1,.05-.11S61.53,34,61.51,34.05Z" transform="translate(-12.68 -7.15)"/><path class="cls-1" d="M56.76,37.81H57a.44.44,0,0,1-.2,0S56.82,37.82,56.76,37.81Z" transform="translate(-12.68 -7.15)"/><path class="cls-1" d="M55.14,36.81l-.09,0v0C55.16,36.87,55.25,36.89,55.14,36.81Z" transform="translate(-12.68 -7.15)"/><path class="cls-1" d="M56.6,37.54c0-.07-.14-.07-.28-.1h0C56.28,37.52,56.44,37.54,56.6,37.54Z" transform="translate(-12.68 -7.15)"/><path class="cls-1" d="M56.28,37.43l-.13,0S56.2,37.42,56.28,37.43Z" transform="translate(-12.68 -7.15)"/><path class="cls-1" d="M58.15,37.8c-.08,0,0,.08-.09.05S58.55,37.73,58.15,37.8Z" transform="translate(-12.68 -7.15)"/><polygon class="cls-1" points="43.85 30.16 43.88 30.25 43.98 30.2 43.85 30.16"/><path class="cls-1" d="M57.66,37.5l-.24,0s0,0-.06,0C57.5,37.51,57.66,37.53,57.66,37.5Z" transform="translate(-12.68 -7.15)"/><path class="cls-1" d="M57.36,37.5a.64.64,0,0,0-.19,0Z" transform="translate(-12.68 -7.15)"/><path class="cls-1" d="M56.84,37.35l.06,0,.17,0Z" transform="translate(-12.68 -7.15)"/><path class="cls-1" d="M60.07,36.91c.06,0,.14-.09.2-.15s-.06,0-.13.05S60,36.91,60.07,36.91Z" transform="translate(-12.68 -7.15)"/><path class="cls-1" d="M59.3,37.05a.33.33,0,0,1,.12,0l0-.09Z" transform="translate(-12.68 -7.15)"/><path class="cls-1" d="M59.93,36.73s.25-.24,0-.08C59.92,36.68,59.73,36.83,59.93,36.73Z" transform="translate(-12.68 -7.15)"/><polygon class="cls-1" points="49.13 26.56 49.13 26.62 49.28 26.63 49.13 26.56"/><path class="cls-1" d="M61,30.57c0,.28.11,0,.15.29,0,.05,0-.21,0-.16C61.1,30.55,61.08,30.46,61,30.57Z" transform="translate(-12.68 -7.15)"/><path class="cls-1" d="M61.19,30.7l.05.08Z" transform="translate(-12.68 -7.15)"/><polygon class="cls-1" points="43.04 13.25 42.91 13.41 43.02 13.32 43.04 13.25"/><path class="cls-1" d="M55.62,20.79h-.11l0,.15S55.58,20.81,55.62,20.79Z" transform="translate(-12.68 -7.15)"/><path class="cls-1" d="M60.9,27.47v0s.07,0,.16,0Z" transform="translate(-12.68 -7.15)"/><polygon class="cls-1" points="50.57 19.75 50.53 19.76 50.64 19.81 50.57 19.75"/><path class="cls-1" d="M64.81,25.64c-.06.06-.12.14-.18.19C64.75,25.7,64.9,25.71,64.81,25.64Z" transform="translate(-12.68 -7.15)"/><rect class="cls-2" x="26.43" y="37.03" width="20.23" height="20.23"/><circle class="cls-3" cx="36.54" cy="18.39" r="5.32"/><path class="cls-1" d="M19.5,61.71c-.17,0-.1.08-.12.1C19.66,61.73,19.48,61.7,19.5,61.71Z" transform="translate(-12.68 -7.15)"/><polygon class="cls-1" points="9.47 53.52 9.43 53.56 9.78 53.32 9.47 53.52"/><path class="cls-1" d="M24.45,59.36c-.26.06-.8.54-1.23.74l-.08,0-.14.17C23.5,60,24.1,59.57,24.45,59.36Z" transform="translate(-12.68 -7.15)"/><path class="cls-1" d="M25.72,58.68c-.1,0,.21-.23-.27.2l.05,0Z" transform="translate(-12.68 -7.15)"/><path class="cls-1" d="M25.5,58.85c-.21.19.17-.09,0,0Z" transform="translate(-12.68 -7.15)"/><path class="cls-1" d="M26.46,58l-.24.29c.07,0,.31-.27.24-.17C26.72,57.8,26.64,57.84,26.46,58Z" transform="translate(-12.68 -7.15)"/><path class="cls-1" d="M26.66,57.66l-.13.14S26.6,57.76,26.66,57.66Z" transform="translate(-12.68 -7.15)"/><path class="cls-1" d="M26.26,58.11l.27-.31c-.05,0-.08,0-.12.14C26.41,57.9,26.37,58,26.26,58.11Z" transform="translate(-12.68 -7.15)"/><path class="cls-1" d="M26.08,58.26c-.17.12-.38.29-.13,0C25.43,58.75,25.56,58.75,26.08,58.26Z" transform="translate(-12.68 -7.15)"/><path class="cls-1" d="M24.49,59.19l-.24.13-.18.17C24.17,59.41,24.52,59.21,24.49,59.19Z" transform="translate(-12.68 -7.15)"/><path class="cls-1" d="M28,56.22s-.13.07-.17.08l-.14.24C27.82,56.43,28,56.22,28,56.22Z" transform="translate(-12.68 -7.15)"/><path class="cls-1" d="M27.86,56.3c.07-.13.14-.25.2-.38C27.86,56.24,27.83,56.3,27.86,56.3Z" transform="translate(-12.68 -7.15)"/><path class="cls-1" d="M26.61,57.53c-.13.18-.27.35-.41.53.17-.21.34-.41.5-.63Z" transform="translate(-12.68 -7.15)"/><path class="cls-1" d="M28.75,54.69l0,.27c0-.16,0-.31,0-.47Z" transform="translate(-12.68 -7.15)"/><path class="cls-1" d="M28.83,53.51c.07.2,0-.29.09-.08a2.2,2.2,0,0,0-.33-.82A2,2,0,0,1,28.83,53.51Z" transform="translate(-12.68 -7.15)"/><path class="cls-1" d="M28.34,52.27c.09.1.16.22.25.34A1.36,1.36,0,0,0,28.34,52.27Z" transform="translate(-12.68 -7.15)"/><path class="cls-1" d="M28.42,55.28a.78.78,0,0,0,.18-.3l-.12.14Z" transform="translate(-12.68 -7.15)"/><path class="cls-1" d="M28.48,55.13h0c.07-.17.11-.3.13-.35S28.56,54.93,28.48,55.13Z" transform="translate(-12.68 -7.15)"/><path class="cls-1" d="M28.4,55.32l0,0S28.4,55.3,28.4,55.32Z" transform="translate(-12.68 -7.15)"/><path class="cls-1" d="M27.37,56.77c.13-.21.4-.64.06-.28C27.36,56.65,27.56,56.45,27.37,56.77Z" transform="translate(-12.68 -7.15)"/><path class="cls-1" d="M28.24,55.48c-.08.13-.15.25-.24.38s.09-.06,0,.06C28.11,55.77,28.18,55.63,28.24,55.48Z" transform="translate(-12.68 -7.15)"/><polygon class="cls-1" points="15.63 48.11 15.56 48.32 15.63 48.17 15.63 48.11"/><path class="cls-1" d="M28.64,53.06a6.88,6.88,0,0,0-.3-.62,4.2,4.2,0,0,1,.29.77S28.73,53.36,28.64,53.06Z" transform="translate(-12.68 -7.15)"/><path class="cls-1" d="M28.73,54.1v-.05S28.72,54.1,28.73,54.1Z" transform="translate(-12.68 -7.15)"/><polygon class="cls-1" points="13.82 43.72 13.85 43.74 13.86 43.74 13.82 43.72"/><path class="cls-1" d="M28.63,53.26a3.63,3.63,0,0,0,.08.44,3.31,3.31,0,0,0-.08-.49S28.61,53.2,28.63,53.26Z" transform="translate(-12.68 -7.15)"/><path class="cls-1" d="M27.88,51.74c.06.09.14.18.21.29A.94.94,0,0,0,27.88,51.74Z" transform="translate(-12.68 -7.15)"/><path class="cls-1" d="M28.76,54v0C28.77,53.94,28.77,54,28.76,54Z" transform="translate(-12.68 -7.15)"/><path class="cls-1" d="M28.76,54a1.16,1.16,0,0,0-.05-.28,2.24,2.24,0,0,1,0,.35Z" transform="translate(-12.68 -7.15)"/><path class="cls-1" d="M25.7,51a1.28,1.28,0,0,1,.87.28c.38.16.26-.15,0-.41,0,0,0,0-.46-.09.15.06.86.46.5.35a3.84,3.84,0,0,1-.68-.33c.21.12-.73-.08-.63.08a2.76,2.76,0,0,1,.49.07S25.57,51,25.7,51Z" transform="translate(-12.68 -7.15)"/><path class="cls-1" d="M27.27,51.33a.91.91,0,0,1,.16.11l-.5-.43c-.29-.13-.36-.13-.39-.12a4.84,4.84,0,0,1,.79.47Z" transform="translate(-12.68 -7.15)"/><path class="cls-1" d="M28,52c-.14-.08-.48-.37-.33-.13.36.4.29.25.5.5-.54-.71.19.18-.17-.36a3.47,3.47,0,0,1,.3.4c-.09-.15-.16-.29-.25-.41v0h0s0,.05,0,0h0l0,0c-.16-.21,0,0,0,0h0a3.49,3.49,0,0,0-.67-.61A5,5,0,0,1,28,52Z" transform="translate(-12.68 -7.15)"/><path class="cls-1" d="M27.58,56.05s0,0,0,0S27.64,56,27.58,56.05Z" transform="translate(-12.68 -7.15)"/><path class="cls-1" d="M27.8,55.79a1.12,1.12,0,0,1-.15.27c-.11.13,0,0,0,0s-.21.36,0,.08l0-.06a4.41,4.41,0,0,1,.47-.55A1.61,1.61,0,0,0,27.8,55.79Z" transform="translate(-12.68 -7.15)"/><path class="cls-1" d="M28.55,54a2.46,2.46,0,0,0-.1-.72c0,.12,0,.25,0,.37l0,0C28.5,54,28.52,53.93,28.55,54Z" transform="translate(-12.68 -7.15)"/><path class="cls-1" d="M26.43,50.81l.12,0c-.15,0-.29-.05-.44-.06A1.68,1.68,0,0,1,26.43,50.81Z" transform="translate(-12.68 -7.15)"/><path class="cls-1" d="M25.51,50.53l0-.05H25.3Z" transform="translate(-12.68 -7.15)"/><path class="cls-1" d="M14.88,31.64l.13-.19A1.64,1.64,0,0,0,14.88,31.64Z" transform="translate(-12.68 -7.15)"/><path class="cls-1" d="M14.28,33.17l0,0C14.3,33.13,14.29,33.1,14.28,33.17Z" transform="translate(-12.68 -7.15)"/><path class="cls-1" d="M19.88,44.82c.29-.08.61-.14.55-.18l-.1,0A3.16,3.16,0,0,1,19.88,44.82Z" transform="translate(-12.68 -7.15)"/><path class="cls-1" d="M25.43,34.54l.07.05.21,0Z" transform="translate(-12.68 -7.15)"/><path class="cls-1" d="M25.16,34.74a2,2,0,0,0-.34-.12Z" transform="translate(-12.68 -7.15)"/><path class="cls-1" d="M21.49,27.06l.17-.18C21.34,27.06,21.5,27,21.49,27.06Z" transform="translate(-12.68 -7.15)"/><path class="cls-1" d="M16.44,50.58l-.6-.14C16.13,50.53,16.36,50.62,16.44,50.58Z" transform="translate(-12.68 -7.15)"/><path class="cls-1" d="M15.17,32.48c0-.1.05-.14,0-.15S15.14,32.5,15.17,32.48Z" transform="translate(-12.68 -7.15)"/><path class="cls-1" d="M15.14,50.29l.13.05c.18,0,.36,0,.57.1A2.56,2.56,0,0,0,15.14,50.29Z" transform="translate(-12.68 -7.15)"/><path class="cls-1" d="M15.91,16.52l0-.06S15.93,16.48,15.91,16.52Z" transform="translate(-12.68 -7.15)"/><path class="cls-1" d="M23.48,14.22h-.35A1.64,1.64,0,0,0,23.48,14.22Z" transform="translate(-12.68 -7.15)"/><path class="cls-1" d="M21.83,50.57c.19,0,0,0,0,0Z" transform="translate(-12.68 -7.15)"/><path class="cls-1" d="M22.78,50.72s-.07,0-.08,0A.15.15,0,0,1,22.78,50.72Z" transform="translate(-12.68 -7.15)"/><path class="cls-1" d="M13.28,50.11h0S13.3,50.14,13.28,50.11Z" transform="translate(-12.68 -7.15)"/><path class="cls-1" d="M22.12,50.56h0Z" transform="translate(-12.68 -7.15)"/><path class="cls-1" d="M22.08,50.54l.16,0S22.24,50.51,22.08,50.54Z" transform="translate(-12.68 -7.15)"/><path class="cls-1" d="M21.58,50.6l.3,0h-.05Z" transform="translate(-12.68 -7.15)"/><path class="cls-1" d="M23.09,22.21h0C22.87,22.28,23,22.26,23.09,22.21Z" transform="translate(-12.68 -7.15)"/><polygon class="cls-1" points="11.29 34.94 11.27 34.95 11.29 34.94 11.29 34.94"/><path class="cls-1" d="M24.5,41.71a1.29,1.29,0,0,1-.53.38l.29.06Z" transform="translate(-12.68 -7.15)"/><path class="cls-1" d="M17.64,29.35l-.43.22c.43-.41.8-.61.38-.43,0,.19-1.54,1.09-1.46,1.31l-.28.17a1.74,1.74,0,0,1,.15-.13c-.55.33-.28.39-.87,1-.21.21-.35.37-.25.19a3.41,3.41,0,0,0-.31.6c-.08.18-.1.12,0-.06a2.44,2.44,0,0,0-.24,1h0a2.91,2.91,0,0,0,.18.64c.06.27-.06-.12-.06-.05a2.07,2.07,0,0,0,.28.53c.11.24-.27-.15-.34-.58a.75.75,0,0,0,.17.61,2.4,2.4,0,0,0,.92.75,2,2,0,0,1-.56-.28,2.2,2.2,0,0,0,1.37.62,5.07,5.07,0,0,1-.57-.21c-.21-.1-.3-.18,0-.12a1.92,1.92,0,0,0,.7.09c0,.07.3.09.68.1l0,.1a2.24,2.24,0,0,0,.62-.1,1.19,1.19,0,0,1,.66.15c.72,0-.51-.11.35-.15a6.91,6.91,0,0,0,1.73-.21c.42,0-.06.07.09.08l.36-.13c.09,0,.06,0,.05,0,.3-.08,0-.09.48-.21.12-.12,1,0,1.57-.22.15,0-.06.06,0,.1a13.08,13.08,0,0,1,1.32-.24,4.28,4.28,0,0,1,.54.12c-.39-.13.14-.17.61-.08l-.33-.18a3.38,3.38,0,0,1,.75.22c.07.05,0,.05-.14,0l.13,0c.23.15.07.14-.12.1l-.22-.16c-.19,0-.37,0-.35.08a.79.79,0,0,1,.23,0c-.05,0-.08,0-.06,0s.09,0,.21,0a1.4,1.4,0,0,1,.1.16l.05,0a2.38,2.38,0,0,1,.68.58,2.5,2.5,0,0,1,1.05,2c-.08-.28-.13-.06-.22-.07a2.3,2.3,0,0,0-.32-1.3c.11.25,0,.22,0,.15a3.47,3.47,0,0,1,.3.91c-.07,0,0,.21-.07.46.17-.19.07.74,0,1.14-.06,0-.07-.1,0-.57-.21.49,0,.73-.27,1.2a.79.79,0,0,0,.07-.23c0,.3-.43.87-.39.71l.06-.1a13.52,13.52,0,0,1-1.69,1.93.72.72,0,0,1,0-.24,10.91,10.91,0,0,1-1,1.15c.06-.16-.49-.15.07-.53a6,6,0,0,0-.75.4c.13,0,.38,0,.22.08-.51.12-.35.11-1,.28.19-.07.06.19-.23.32,0,0-.1-.15,0-.21l-.65.48c.16-.11,0-.14-.21-.11.09,0-.64.28-.82.39l.32-.11c-.83.37-.71.6-1.51,1,.08-.08.14-.32-.28-.13a6.09,6.09,0,0,1-1.27,1.25l-.16,0-.49.35a13.34,13.34,0,0,1,1.51-1.44,1.75,1.75,0,0,0-.56.24c-.18.05.21-.19.34-.27l-1.05.55c.09.06-.73.55-.65.6l1.06-.74c.1.07-.51.62-1.23,1-.2.07,0-.24,0-.26a4.06,4.06,0,0,1-.72.5l.27-.24c-.41.22-.57.52-1.09.75-.16.1-.55.22-.55.29.33-.08.58.18.46.37-.06,0-.89.48-1.1.57s.26-.46,0-.36c0,0-.11.16-.17.21s0-.13-.34.17c0,.11-.68.68-.1.21-.28.36-.4.31-.57.9.05-.09.06.06.13.25a1.11,1.11,0,0,0,.42.51s0,.09,0,.12a3.78,3.78,0,0,0,1,.43,8.94,8.94,0,0,0,1,.27c.07,0,.45.15.28.16a3.58,3.58,0,0,1,.49,0c.47.17-.57-.08-.21.09a6.63,6.63,0,0,1,1,0A4.53,4.53,0,0,0,15.74,51c0-.13.66-.13,1.51-.11.68,0,.29.11.4.11,1.28.11,1.09-.16,2.14-.07.42.06,0,.16.12.21a7.64,7.64,0,0,1-1.23,0l.47,0a3.12,3.12,0,0,1-.75,0,17.8,17.8,0,0,0,3.15,0c.18,0,.47-.11.33-.12l-.31,0c-.29,0,.57-.15.18-.14a6.72,6.72,0,0,1,1.47-.24l.12.08a1.63,1.63,0,0,0-.56,0A9.91,9.91,0,0,0,24,50.64l-.43,0a4.67,4.67,0,0,1,1.52-.08c-.24-.11-.12,0-.51-.14.33.12-1.4,0-.86.14a7.15,7.15,0,0,0-1.19-.06s.18,0-.26.07l-.09,0h0l.23,0a10.29,10.29,0,0,1-1.13.24c-.26,0,.1,0,0-.06l-.34.08c0-.06-.69-.06-.09-.14l-.54,0a7.07,7.07,0,0,0-1,0c-.26,0-.65.06-.43,0h-.85v0a10.18,10.18,0,0,1-2.65-.39,6.16,6.16,0,0,1-1-.24L14.17,50a1.63,1.63,0,0,1-.57-.23c-.16-.1-.22-.19-.27-.21a.77.77,0,0,1,.17-.53,3.27,3.27,0,0,1,.86-.76l0-.08c.36-.25.7-.51,1.14-.84l-.06,0a18.75,18.75,0,0,1,1.69-1,1,1,0,0,1-.32.2c.84-.34,1.58-1.06,2.36-1.34a1.66,1.66,0,0,1,.43-.23l0,0,.08,0,.26-.1-.22.08.54-.31.13,0,0,0c.22-.08.15-.11,0-.11l.26-.17c.22,0,.54-.3.82-.29.12-.12,1.06-.53,1.12-.7,0,0,.08,0,0,0a2.94,2.94,0,0,0,.69-.33l.14,0,.46-.38c.33-.11.47-.17.2.07a8.76,8.76,0,0,0,1.12-.88v.07c.22-.15.48-.48.63-.55A4.3,4.3,0,0,0,27,40a5.8,5.8,0,0,0,.7-2.48c-.15.31.05-.73-.13-.77,0-.1,0-.32.09-.08a2.61,2.61,0,0,0-.84-1.57c0-.1.17.1.13,0l-.25-.25c-.05-.08.12.05.22.14-.64-.61-.83-.46-.93-.41a1.26,1.26,0,0,0-.84-.3c-.12-.07-.35-.17.14-.06a4.44,4.44,0,0,0-.95-.17,1.56,1.56,0,0,0-.76.06,1.68,1.68,0,0,0-.45,0,9.85,9.85,0,0,0-1.23.18l.17,0c-.21.16-.48.12-.94.21h0a13.19,13.19,0,0,1-1.5.16l.06.06c-.09.17-.94,0-1.55,0l.22,0a5.43,5.43,0,0,1-1.25-.25c-.08,0,.11,0,.21,0-.86-.14-.12.09-.76.06-.12-.06.16-.11-.27-.16-.1,0-.41,0-.69-.1a.73.73,0,0,1-.55-.56c0,.11,0,.24-.11,0a1.3,1.3,0,0,1,0-.74c.05-.27.15-.49.19-.7l.06-.05A7.26,7.26,0,0,1,16,31.27c.38,0,1.69-1.44,1.83-1.23l.92-.6v0a4.89,4.89,0,0,0,1-.7c.15-.06.05,0,.05,0a8.79,8.79,0,0,0,1.71-1l.11,0c.18-.15,1.37-.61,2.21-1.2,0,0,0,0-.08.08.95-.63,2.45-1.31,2.63-1.79l.55-.52c-.78.59,0-.19-.3,0,.3-.23.81-.6.47-.26l-.07,0c0,.11.24-.07.46-.33s.41-.57.44-.54a1.68,1.68,0,0,0,.2-.81,1.15,1.15,0,0,0-.4-.8,2.29,2.29,0,0,0-1.51-.36,14.8,14.8,0,0,0-2.78.29l.22.07-.62.12c-.16,0-.23,0,.21-.13a1.62,1.62,0,0,0-.73.25c-.87.15.3-.21,0-.15l-.36.09h.09a4,4,0,0,1-.82.29c-.33.06-.19,0-.32,0s0,0-.2.05l-.76.18h.32c-.32.12-.72.16-.34.18-.55,0-2.87.53-3.2.45a5.93,5.93,0,0,1-1.54.06c.14,0,.22.15-.27.06.11-.09-.13-.13-.31-.26a.5.5,0,0,1-.13-.6c-.17.36.19-1.39,0-.86.1-.41.08,0,.19-.32A12.12,12.12,0,0,1,16,17.86s-.14.15-.06-.11l.42-.52c.11-.22,0-.28.29-.61-.05,0-.13.1-.05,0a5.13,5.13,0,0,1,2.72-2.25,8.24,8.24,0,0,1,3.7-.07c-.34-.07-.11-.06.15,0-.17,0,0-.06,0-.1.35.05.7.11,1.06.14.19-.07,1.16,0,1.26-.13l-.34,0c.44-.13-.64-.22-.57-.38-.49.13-1.28-.23-2.11-.1-.18,0,.15,0,.06-.08a2.7,2.7,0,0,1-.93,0h.05a13.58,13.58,0,0,0-1.64.06,5.19,5.19,0,0,0-1.75.5h.14l-.51.24c-.28.28.81-.47.57-.19a2.82,2.82,0,0,0-1.16.73c-.41.39-.72.83-.87.9-.29.41.14-.07-.14.34l-.1.09,0,.13c-.18.27-.3.39-.34.38s.1-.2.14-.27a7.1,7.1,0,0,0-.63,1.18l.24-.42a13.22,13.22,0,0,0-1.33,4.07l.05-.09c-.06.5-.09.68-.13.9a1.28,1.28,0,0,0,0,.41.94.94,0,0,0,.38.68l-.05,0a2.06,2.06,0,0,0,.89.27c-.29,0,.52.1.15.13a3.34,3.34,0,0,0,1.25-.18l.16,0a3.18,3.18,0,0,1,.79-.18c-.43.11.35,0-.13.17,1.15,0,1.64-.4,2.18-.33.47-.27-1,.12-.7,0-.24,0,.4-.19.75-.26a7.9,7.9,0,0,0,1.51-.17l-.18.06c.34-.05.63-.21,1.05-.25.2-.15.52-.12.55-.25l-.79.22a6.29,6.29,0,0,1,1.61-.47l-.42.16c.22,0,.41-.11.65-.12,0,.13-1,.23-1.43.43.24,0,.89-.29.68-.11.31-.24.86-.16,1.43-.38l0,.08a2.46,2.46,0,0,1,.45-.11l-.29.13a8,8,0,0,1,1.37-.1c-1,.06-.22-.07-.63-.1a2,2,0,0,1,1,0c.17.07.44.07.87.22-.08,0-.49-.16-.25-.16s.4.19.41.28c.23.4,0-.11.17.05s.12.25,0,.6l-.07,0c-.19.38-.24.44-.23.51s0,.13-.32.41a1.74,1.74,0,0,0,.18-.33c-.09.12-.19.23-.29.34V23.7a4,4,0,0,1-.89.74c.12,0,0,.14-.34.41s.1-.15-.42.22a1,1,0,0,1,.45-.36s.09-.12.1-.16c-.29.16-.69.47-.88.6L25,25c-.23.21-.48.4-.72.59s-.06,0,0-.1c-.15.1-.25.2-.48.35,0-.09,0-.13.3-.36l-.72.51c-.07,0-.43.17-.34.09-.45.22-1,.7-1.6,1a1.68,1.68,0,0,1-.2.14,12.3,12.3,0,0,0-1.67.92l-.42.12c-.48.32.56-.17-.25.35-.57.38-.27.05-.49.15a5.74,5.74,0,0,1-1.27.91C17.34,29.54,17.48,29.46,17.64,29.35ZM15.7,35.12c-.15,0-.49-.1-.57-.22A2.44,2.44,0,0,1,15.7,35.12Zm10.54,0a2.19,2.19,0,0,1-.33-.25A1.25,1.25,0,0,1,26.24,35.15ZM19.82,50.79h0C19.5,50.77,19.61,50.78,19.82,50.79Zm.62,0c.07,0,.06,0,0,0a1.2,1.2,0,0,1-.34,0A.59.59,0,0,0,20.44,50.79ZM21,22.2h.13C20.88,22.28,21,22.24,21,22.2Z" transform="translate(-12.68 -7.15)"/><path class="cls-1" d="M25.19,34.72s0,0,0,0S25.09,34.68,25.19,34.72Z" transform="translate(-12.68 -7.15)"/><path class="cls-1" d="M21.46,27.09h0a0,0,0,0,0,0,0Z" transform="translate(-12.68 -7.15)"/><path class="cls-1" d="M13.63,47.86l.23-.12S13.8,47.74,13.63,47.86Z" transform="translate(-12.68 -7.15)"/><path class="cls-1" d="M23.81,50.35l-.43,0a2.3,2.3,0,0,1,.38,0S23.67,50.36,23.81,50.35Z" transform="translate(-12.68 -7.15)"/><path class="cls-1" d="M27.17,51.68l.15.11v0C27.12,51.59,27,51.52,27.17,51.68Z" transform="translate(-12.68 -7.15)"/><path class="cls-1" d="M24.2,50.59c0,.06.29,0,.58,0h-.05C24.83,50.56,24.51,50.56,24.2,50.59Z" transform="translate(-12.68 -7.15)"/><path class="cls-1" d="M24.85,50.64l.27,0S25,50.65,24.85,50.64Z" transform="translate(-12.68 -7.15)"/><path class="cls-1" d="M21.23,50.69c.14,0,.08-.09.15-.07S20.51,50.8,21.23,50.69Z" transform="translate(-12.68 -7.15)"/><polygon class="cls-1" points="11.75 43.64 11.65 43.56 11.49 43.62 11.75 43.64"/><path class="cls-1" d="M22.17,50.88l.46,0s.05,0,.12,0A4,4,0,0,0,22.17,50.88Z" transform="translate(-12.68 -7.15)"/><path class="cls-1" d="M22.75,50.81a2.21,2.21,0,0,0,.36-.05Z" transform="translate(-12.68 -7.15)"/><polygon class="cls-1" points="11.13 43.66 10.99 43.65 10.67 43.67 11.13 43.66"/><path class="cls-1" d="M17.3,51l-.5,0c-.05,0,.08.05.27.07S17.37,51,17.3,51Z" transform="translate(-12.68 -7.15)"/><path class="cls-1" d="M18.79,51.28a1.29,1.29,0,0,1-.22-.06l0,.09Z" transform="translate(-12.68 -7.15)"/><path class="cls-1" d="M17.33,51.21s-.73,0-.1.06C17.28,51.25,17.79,51.28,17.33,51.21Z" transform="translate(-12.68 -7.15)"/><polygon class="cls-1" points="1.73 40.46 1.63 40.54 1.73 40.65 1.73 40.46"/><path class="cls-1" d="M19.94,43.92c-.55.24-.08.15-.58.35-.11.1.4-.16.29-.07C20,44,20.13,43.94,19.94,43.92Z" transform="translate(-12.68 -7.15)"/><path class="cls-1" d="M19.65,44.2l-.15.1Z" transform="translate(-12.68 -7.15)"/><polygon class="cls-1" points="12.21 7.18 12.61 7.19 12.35 7.16 12.21 7.18"/><path class="cls-1" d="M25.64,14.17l.1.08.22-.11A2,2,0,0,1,25.64,14.17Z" transform="translate(-12.68 -7.15)"/><path class="cls-1" d="M16.79,35.46l0,0a1.25,1.25,0,0,0-.33,0Z" transform="translate(-12.68 -7.15)"/><polygon class="cls-1" points="2.47 24.02 2.4 24.09 2.59 24.02 2.47 24.02"/><path class="cls-1" d="M18.68,28.48c-.16.09-.33.21-.48.31C18.52,28.56,18.78,28.55,18.68,28.48Z" transform="translate(-12.68 -7.15)"/><path class="cls-1" d="M81.52,59c0,.16.09.08.11.1C81.53,58.83,81.51,59,81.52,59Z" transform="translate(-12.68 -7.15)"/><path class="cls-1" d="M79.65,57.41h0c-.12,0-.23,0-.35-.06Z" transform="translate(-12.68 -7.15)"/><path class="cls-1" d="M77.49,57.11c.2.09.78,0,1.17.06l.06,0,.2-.05A9,9,0,0,0,77.49,57.11Z" transform="translate(-12.68 -7.15)"/><path class="cls-1" d="M76.33,57c.07,0-.24.06.26,0h0Z" transform="translate(-12.68 -7.15)"/><path class="cls-1" d="M76.54,57c.22,0-.15,0,0,0Z" transform="translate(-12.68 -7.15)"/><path class="cls-1" d="M75.53,57.07l.28-.06c-.06,0-.31,0-.22,0C75.3,57,75.36,57,75.53,57.07Z" transform="translate(-12.68 -7.15)"/><path class="cls-1" d="M75.27,57.17l.14,0S75.35,57.13,75.27,57.17Z" transform="translate(-12.68 -7.15)"/><path class="cls-1" d="M75.72,57.08l-.31.06s0,0,.15,0S75.59,57.12,75.72,57.08Z" transform="translate(-12.68 -7.15)"/><path class="cls-1" d="M75.9,57.08c.17,0,.38,0,.09.07C76.55,57.08,76.46,57,75.9,57.08Z" transform="translate(-12.68 -7.15)"/><path class="cls-1" d="M77.38,57.22l.22,0,.2,0C77.7,57.22,77.37,57.19,77.38,57.22Z" transform="translate(-12.68 -7.15)"/><path class="cls-1" d="M73.85,57s.07.08.09.11h.19C74,57,73.85,57,73.85,57Z" transform="translate(-12.68 -7.15)"/><path class="cls-1" d="M73.94,57.06l-.3,0C73.9,57.1,74,57.09,73.94,57.06Z" transform="translate(-12.68 -7.15)"/><polygon class="cls-1" points="62.54 50.13 63.06 50.02 62.44 50.14 62.54 50.13"/><path class="cls-1" d="M72.85,56.56l.16,0-.28-.07Z" transform="translate(-12.68 -7.15)"/><path class="cls-1" d="M72.31,56.14c.1,0,0-.16.06-.09l-.32-.32C72.14,55.84,72.2,56,72.31,56.14Z" transform="translate(-12.68 -7.15)"/><path class="cls-1" d="M71.93,55.55a.94.94,0,0,0,.12.18A1.88,1.88,0,0,0,71.93,55.55Z" transform="translate(-12.68 -7.15)"/><path class="cls-1" d="M73.17,56.86A.59.59,0,0,0,73,56.7l.07.11Z" transform="translate(-12.68 -7.15)"/><path class="cls-1" d="M73.07,56.81h0a1.33,1.33,0,0,1-.21-.12A1.05,1.05,0,0,0,73.07,56.81Z" transform="translate(-12.68 -7.15)"/><path class="cls-1" d="M73.2,56.87h0Z" transform="translate(-12.68 -7.15)"/><path class="cls-1" d="M74.4,57.23c-.17,0-.56,0-.2.11C74.33,57.31,74.13,57.26,74.4,57.23Z" transform="translate(-12.68 -7.15)"/><path class="cls-1" d="M73.3,57l.3.11s0-.06,0,0Z" transform="translate(-12.68 -7.15)"/><polygon class="cls-1" points="60.47 49.8 60.62 49.84 60.51 49.8 60.47 49.8"/><path class="cls-1" d="M72.08,56a1,1,0,0,1-.22-.34,1.51,1.51,0,0,0,.22.44S72.18,56.13,72.08,56Z" transform="translate(-12.68 -7.15)"/><path class="cls-1" d="M72.49,56.45h0S72.48,56.46,72.49,56.45Z" transform="translate(-12.68 -7.15)"/><polygon class="cls-1" points="59.3 47.03 59.28 47.04 59.28 47.05 59.3 47.03"/><path class="cls-1" d="M72.09,56.12a.58.58,0,0,0,.2.19,2.23,2.23,0,0,1-.21-.22S72.06,56.09,72.09,56.12Z" transform="translate(-12.68 -7.15)"/><path class="cls-1" d="M71.83,55.17a.44.44,0,0,0,0,.2A1.64,1.64,0,0,0,71.83,55.17Z" transform="translate(-12.68 -7.15)"/><path class="cls-1" d="M72.44,56.39h0S72.43,56.38,72.44,56.39Z" transform="translate(-12.68 -7.15)"/><path class="cls-1" d="M72.44,56.39l-.15-.08.17.13Z" transform="translate(-12.68 -7.15)"/><path class="cls-1" d="M71.89,53.52a1.9,1.9,0,0,1-.32.69c-.07.32.18.16.39,0,0,0-.06,0,.07-.32-.1.06-.37.59-.31.33.15-.41.18-.31.31-.47-.18.1.25-.5.12-.49a2.7,2.7,0,0,0-.22.33S72,53.44,71.89,53.52Z" transform="translate(-12.68 -7.15)"/><path class="cls-1" d="M71.77,54.73a.37.37,0,0,0,0,.11,1.2,1.2,0,0,1,.17-.37c0-.19,0-.24,0-.26a2.84,2.84,0,0,0-.19.56Z" transform="translate(-12.68 -7.15)"/><path class="cls-1" d="M71.77,55.36c-.09-.07-.12-.37-.18-.18,0,.37.09.25.17.44-.16-.54.06.15,0-.25a2.29,2.29,0,0,0,.09.28,1,1,0,0,1,0-.28v0h0l0,0c0-.15,0,0,0,0h0a1.69,1.69,0,0,1,0-.55A1.52,1.52,0,0,0,71.77,55.36Z" transform="translate(-12.68 -7.15)"/><path class="cls-1" d="M73.84,57.42l0,0S73.76,57.4,73.84,57.42Z" transform="translate(-12.68 -7.15)"/><path class="cls-1" d="M73.58,57.32a.65.65,0,0,1,.24,0c.13,0,0,0,0,0s.33,0,.05-.07h-.05a1.3,1.3,0,0,1-.49-.25A.72.72,0,0,0,73.58,57.32Z" transform="translate(-12.68 -7.15)"/><path class="cls-1" d="M72.31,56.55a2.44,2.44,0,0,1-.37-.35,1.41,1.41,0,0,0,.13.24v0C72.29,56.62,72.27,56.55,72.31,56.55Z" transform="translate(-12.68 -7.15)"/><path class="cls-1" d="M72,54.14l0,.09a1.55,1.55,0,0,1,0-.29C72.09,54,72.05,54.08,72,54.14Z" transform="translate(-12.68 -7.15)"/><polygon class="cls-1" points="59.7 46.46 59.73 46.52 59.81 46.37 59.7 46.46"/><path class="cls-1" d="M77.85,33.61l.14-.09Z" transform="translate(-12.68 -7.15)"/><path class="cls-1" d="M76.81,34.1l0,0S76.85,34.08,76.81,34.1Z" transform="translate(-12.68 -7.15)"/><path class="cls-1" d="M81.39,42.72c-.2-.16-.43-.35-.43-.28l.05.1A2,2,0,0,1,81.39,42.72Z" transform="translate(-12.68 -7.15)"/><path class="cls-1" d="M70.12,40.49l0,.07.07.16A1.2,1.2,0,0,1,70.12,40.49Z" transform="translate(-12.68 -7.15)"/><path class="cls-1" d="M69.86,40.3,70,40A3,3,0,0,0,69.86,40.3Z" transform="translate(-12.68 -7.15)"/><path class="cls-1" d="M81.44,29.11l-.06-.17C81.36,29.2,81.41,29.09,81.44,29.11Z" transform="translate(-12.68 -7.15)"/><path class="cls-1" d="M78.84,50.54a5.21,5.21,0,0,0,.47-.23C79.07,50.4,78.87,50.46,78.84,50.54Z" transform="translate(-12.68 -7.15)"/><path class="cls-1" d="M77.75,34.44c.08-.06.11-.09.11-.1S77.72,34.43,77.75,34.44Z" transform="translate(-12.68 -7.15)"/><path class="cls-1" d="M79.82,50l-.1.05a4.85,4.85,0,0,1-.41.28A1.59,1.59,0,0,0,79.82,50Z" transform="translate(-12.68 -7.15)"/><path class="cls-1" d="M78.41,17l0,0S78.41,16.92,78.41,17Z" transform="translate(-12.68 -7.15)"/><path class="cls-1" d="M75.34,12l.3,0A1.62,1.62,0,0,0,75.34,12Z" transform="translate(-12.68 -7.15)"/><path class="cls-1" d="M74.66,52.29c-.13.06,0,0,0,0Z" transform="translate(-12.68 -7.15)"/><path class="cls-1" d="M73.9,52.3a.07.07,0,0,0,0,0A.1.1,0,0,1,73.9,52.3Z" transform="translate(-12.68 -7.15)"/><path class="cls-1" d="M80.81,48.74h0S80.79,48.75,80.81,48.74Z" transform="translate(-12.68 -7.15)"/><path class="cls-1" d="M74.44,52.34l.19-.05Z" transform="translate(-12.68 -7.15)"/><path class="cls-1" d="M74.48,52.36l-.12,0Z" transform="translate(-12.68 -7.15)"/><path class="cls-1" d="M74.86,52.22l-.23.07h0Z" transform="translate(-12.68 -7.15)"/><path class="cls-1" d="M73.25,25.32l0,0C73.05,25.28,73.12,25.3,73.25,25.32Z" transform="translate(-12.68 -7.15)"/><polygon class="cls-1" points="64.68 35.46 64.7 35.46 64.67 35.46 64.68 35.46"/><path class="cls-1" d="M76.82,42.65a1.11,1.11,0,0,1,.53,0l-.17-.19Z" transform="translate(-12.68 -7.15)"/><path class="cls-1" d="M80.05,32.07a3.13,3.13,0,0,1-.3.2c.25-.36.47-.56.19-.38.15.21-1,.9-1,1.08l-.23.1.12-.09c-.45.17-.22.32-.78.59-.2.09-.35.13-.23,0l-.41.26c-.13.06-.11,0,0,0l-.67.32h0c-.08.07-.28.21-.38.28s.07-.06,0-.06l-.36.2c-.18,0,.12-.16.38-.27-.43,0-.29.18-1.11.41l.35-.18a4.15,4.15,0,0,0-1,.27c.12,0,.9-.2.5,0a1.93,1.93,0,0,0-.49.24c0-.07-.24,0-.52.18l0-.09a1.58,1.58,0,0,0-.39.33.82.82,0,0,1-.54.13c-.52.3.41-.11-.18.27a4.09,4.09,0,0,0-1.13.89c-.28.2,0-.09-.1,0l-.18.27c-.06,0-.06,0-.06,0-.16.21,0,.09-.22.39,0,.15-.68.53-.84,1-.08.1,0-.08-.07-.07a3.18,3.18,0,0,0-.33,1.14A4.52,4.52,0,0,0,70,40c.14-.34.12.13.17.51a1.63,1.63,0,0,1,.11-.28,1.94,1.94,0,0,0,0,.59c0,.07-.05,0-.1-.08a.36.36,0,0,0,0,.11c0,.21-.08.13-.16,0a1.89,1.89,0,0,1,0-.23c0-.15-.1-.31-.16-.28a1.28,1.28,0,0,1,0,.22s0-.08,0-.06a.57.57,0,0,0,0,.21.86.86,0,0,0-.1.16l0,0a1.4,1.4,0,0,0,.4.9,4.83,4.83,0,0,0,2.07.4c-.24,0-.07.12-.1.21-.23-.16-.71-.06-1.2-.25.25.1.19.12.12.11a5.39,5.39,0,0,0,.88.1c0,.07.17.1.39.15-.15-.17.64,0,1,0,0,0-.07.1-.49.06.46.14.62-.13,1.06,0a.58.58,0,0,0-.2,0c.25,0,.83,0,.69.06h-.1a8.51,8.51,0,0,0,2.17-.11.63.63,0,0,1-.14.18c.41-.15.81-.29,1.22-.41-.11.11.28.39-.27.42a3.17,3.17,0,0,0,.69,0c-.11,0-.27-.17-.12-.17.4.14.28.08.77.23-.16,0,0-.2.29-.15,0,0,0,.17-.09.17.21,0,.43-.06.65-.07-.16,0,0,.14.07.22a3.16,3.16,0,0,1,.69.16l-.24-.12c.66.24.75,0,1.39.31-.09,0-.27.08,0,.28a2.29,2.29,0,0,1,1.39.46l0,.13a3.33,3.33,0,0,1,.36.39,4.13,4.13,0,0,0-.7-.44c-.29-.14-.61-.25-.82-.34.19.18,0,.09.33.32.08.12-.2-.07-.29-.14a5,5,0,0,1,.63.58c.07-.1.47.44.5.39a2.76,2.76,0,0,0-.66-.66c0-.11.67.16.9.79,0,.16-.21,0-.24,0a.86.86,0,0,1,.18.55,1.43,1.43,0,0,0-.08-.22c0,.28.16.51-.11.83-.07.12-.33.27-.3.32.23-.1.56,0,.52.24a5.26,5.26,0,0,1-.79.66c-.24.12.11-.43-.1-.32a.48.48,0,0,1-.09.2c-.13.1,0-.11-.25.15,0,.12-.51.5-.05.18a5,5,0,0,1-.57.52c.14,0-.12.41-.37.66,0,0-.09,0-.13,0a15.67,15.67,0,0,1-1.46,1c-.06,0-.35.16-.25.05a1.67,1.67,0,0,1-.31.24c-.38.13.39-.24.07-.18,0,.07-.41.34-.65.51.13,0,.6-.31.83-.5.07.11-.3.5-.9.87s-.25,0-.33.1c-1,.41-.73.58-1.58.8-.36,0-.07-.15-.16-.18.41-.18.67-.19,1-.31l-.36.11a2.8,2.8,0,0,1,.55-.26c-.28.07-1.64.62-2.44.78-.12.07-.35.18-.23.17l.24-.09c.24,0-.42.23-.11.16a10.94,10.94,0,0,1-1.07.51l-.12,0a1.15,1.15,0,0,0,.41-.15c-.16.1-.71.19-.83.41l.32-.1a10.87,10.87,0,0,0-.84.74c.19-.06.06-.08.34-.17-.3,0,.82-.54.43-.45.31,0,.47-.19.87-.23,0,0-.15,0,.18-.11l.06-.06h0a.43.43,0,0,1-.18,0,5.28,5.28,0,0,1,.83-.39c.21,0-.07.05.05.05l.26-.14c0,.06.57-.06.1.13l.44-.14a3.11,3.11,0,0,0,.83-.27c.2-.06.48-.27.32-.15.22-.11.43-.21.64-.33h0c.65-.3,1.24-.76,2-1.1.19-.15.38-.3.71-.52h.1a6.45,6.45,0,0,0,.83-.66c.36-.09,1.13-1,1.51-1.38l-.05-.07a3.63,3.63,0,0,0,.72-1h-.07a2.92,2.92,0,0,0,.22-.82,1.85,1.85,0,0,0-.24-1,.72.72,0,0,1,.16.33,2,2,0,0,0-.7-1.07c-.33-.25-.64-.47-.92-.7a1.57,1.57,0,0,1-.37-.22l0,0-.06,0a1.07,1.07,0,0,0-.21-.13l.18.11c-.13,0-.32-.13-.51-.19l0-.1,0,0c-.18-.09-.17,0-.09.06l-.26,0c-.12-.16-.5-.12-.68-.28-.15,0-1-.13-1.1,0s-.06,0,0,0a2.22,2.22,0,0,0-.62,0l-.08-.1-.48.1c-.28-.07-.4-.11-.11-.17-.69.09-.56,0-1.14.13l0-.06a3.1,3.1,0,0,1-.66,0,33.38,33.38,0,0,1-3.4-.28c.2.21-.51-.16-.57,0-.06,0-.21-.11,0-.11a3.76,3.76,0,0,1-1.09-.37c0-.06.11,0,.09,0s-.13-.06-.14-.11.06,0,.13.05c-.28-.26-.34-.3-.49-.31a2.13,2.13,0,0,0,0-.63c0-.1.12-.26.08.1,0-.1.07-.41.15-.68s.18-.52.14-.55a1.27,1.27,0,0,0,.15-.31,6.9,6.9,0,0,1,.54-.79l-.09.09c0-.21.22-.32.47-.59v0c.68-.53.23-.3,1-.75l-.08,0c0-.18.66-.37,1.06-.66l-.18.06c.21-.19.76-.19,1-.28.06,0-.07.06-.14.1.67-.22,0-.12.51-.37.11,0-.06.17.27,0A8.5,8.5,0,0,1,76.52,35c-.12,0-.23,0,0-.11a4.76,4.76,0,0,0,1.28-.55s.07,0,.08,0a6.77,6.77,0,0,0,1-.64c.18,0,.56-.24.89-.52s.59-.58.67-.49A8.29,8.29,0,0,0,81,32v0a1.89,1.89,0,0,0,.47-.91c.08-.11.05,0,.06,0A2.69,2.69,0,0,0,82,29.49l.09-.07c0-.1.07-.41.07-.83a2.62,2.62,0,0,0-.34-1.31.19.19,0,0,1,.07.08,5.12,5.12,0,0,0-1-1.31,1.43,1.43,0,0,0-1-.5,6.23,6.23,0,0,0-.62-.15c.77.28-.15.07.15.22-.29-.09-.76-.29-.38-.21l.06,0c.18-.12-1-.26-.94-.33-.79-.1-1.57-.12-2.32-.14a16.64,16.64,0,0,1-2.17-.1l.14.13a3.55,3.55,0,0,1-.47-.09c-.12-.06-.14-.12.18,0a1.4,1.4,0,0,0-.57-.09c-.58-.29.28,0,.1-.1l-.25-.09,0,0a.91.91,0,0,1-.56-.25c-.15-.18,0-.13-.09-.19s0,0-.07-.11a1.18,1.18,0,0,1-.14-.46,1.42,1.42,0,0,0,0,.22c-.1-.22,0-.51-.13-.25a2,2,0,0,1,.58-1,3.82,3.82,0,0,1,1-.66,6.81,6.81,0,0,1,1.12-.59c-.11,0-.22,0,.16-.19,0,.25.73-.27,1.1-.33-.31.09,1-.66.53-.52.31-.18.06.06.31-.06a7.14,7.14,0,0,0,2.08-2.12s-.14.11,0-.11a4.47,4.47,0,0,0,.36-.47c0-.22-.07-.23.11-.59,0,.05-.08.12-.06,0a3.69,3.69,0,0,0-.57-3.11A4.5,4.5,0,0,0,75.78,12c.29.1.09.07-.14,0,.15,0,0,.07,0,.11a3.49,3.49,0,0,0-.91-.11c-.16.08-1,.19-1,.34l.26-.11c-.32.21.57.1.53.28.38-.2,1,.09,1.63.09.12.06-.13,0-.07.06a1.11,1.11,0,0,1,.67.2h0a2.82,2.82,0,0,1,1,.72,3.45,3.45,0,0,1,.64,1.11l0-.1a1.17,1.17,0,0,1,.09.39c.2.22-.22-.63,0-.44,0,.17.15.56.21,1a1.47,1.47,0,0,1-.07.89c-.06.35.1-.1,0,.26l-.06.09,0,.1c-.08.23-.17.32-.21.32s0-.16.06-.22a6.79,6.79,0,0,1-.39.88,2.4,2.4,0,0,0,.19-.29A6.67,6.67,0,0,1,76,19.89h.09a9,9,0,0,1-1.28.73l0,0a3.07,3.07,0,0,1-.55.33c.18-.13-.4.11-.16-.05a2.89,2.89,0,0,0-.82.58H73.2a2.44,2.44,0,0,1-.52.4c.28-.23-.29.09,0-.19-.9.43-1,1-1.32,1.43,0,.26.08,0,.18-.2s.27-.44.21-.33c.16-.14-.14.36-.2.67,0,.15-.09.28-.12.48a1.16,1.16,0,0,0,.28.87l-.11-.14c.16.31.46.44.75.67.23,0,.44.2.54.1a3,3,0,0,1-.67-.28,8.41,8.41,0,0,0,1.38.38,1.57,1.57,0,0,1-.38,0c.18.07.36.05.55.11-.07.12-.84-.1-1.28-.23.18.16.82.19.57.25.34-.07.76.19,1.29.07l0,.08a2.7,2.7,0,0,1,.39-.05l-.26.1c.4-.08.77.06,1.15,0-.8,0-.18-.08-.52-.13,1-.1.58.17,1.67.15-.15,0-.55-.05-.32-.08a2.87,2.87,0,0,1,.6.1c.72,0-.1-.08.2-.11s.36,0,.67,0v.07c.79.16.24-.13.94.07l-.32,0c.13,0,.25,0,.37.06l-.09.06a1.85,1.85,0,0,1,.87.27c-.07-.08.11-.12.41.06s-.14,0,.27.24a.66.66,0,0,1-.39-.21s-.11,0-.15,0c.2.15.52.33.65.44l-.14-.12a2.74,2.74,0,0,1,.57.39c0,.11,0,0-.09,0,.09.1.17.16.3.32-.08,0-.13,0-.31-.17a2.63,2.63,0,0,1,.39.49c0,.05.06.33,0,.26a2.76,2.76,0,0,1,.23,1.29.38.38,0,0,1,0,.18A12.52,12.52,0,0,1,81,30.65l-.24.23c-.2.38.33-.3,0,.34-.26.45-.18.11-.31.24a1.92,1.92,0,0,1-.73.91C79.86,32.25,80,32.18,80.05,32.07Zm-4.84,2.75c.1-.06.28-.19.38-.18C75.5,34.76,75.4,34.76,75.21,34.82Zm-5,6.57A.58.58,0,0,1,70,41,2.76,2.76,0,0,0,70.2,41.39Zm6,10.33h0C76.5,51.65,76.41,51.67,76.24,51.72Zm-.51.14s0,0,0,0a1,1,0,0,1,.27-.1S75.87,51.79,75.73,51.86Zm-3.58-27.7s0,.05,0,.07C72.05,24.1,72.1,24.13,72.15,24.16Z" transform="translate(-12.68 -7.15)"/><path class="cls-1" d="M69.89,40.33s0,0,0,0S69.91,40.23,69.89,40.33Z" transform="translate(-12.68 -7.15)"/><path class="cls-1" d="M81.45,29.14h0a0,0,0,0,1,0,0Z" transform="translate(-12.68 -7.15)"/><path class="cls-1" d="M82.11,47.15c.08-.07.12-.11.16-.12S82.22,47,82.11,47.15Z" transform="translate(-12.68 -7.15)"/><path class="cls-1" d="M73.31,52.92l.26-.17a.78.78,0,0,1-.25.11S73.39,52.87,73.31,52.92Z" transform="translate(-12.68 -7.15)"/><path class="cls-1" d="M71.42,54.75s0,.1,0,.15h0C71.46,54.69,71.47,54.55,71.42,54.75Z" transform="translate(-12.68 -7.15)"/><path class="cls-1" d="M72.94,52.86s-.21.1-.36.25l0,0C72.62,53.19,72.77,53,72.94,52.86Z" transform="translate(-12.68 -7.15)"/><path class="cls-1" d="M72.54,53.15l-.14.14S72.45,53.23,72.54,53.15Z" transform="translate(-12.68 -7.15)"/><path class="cls-1" d="M75.12,52.09c-.11,0,0,.1-.11.09S75.67,51.87,75.12,52.09Z" transform="translate(-12.68 -7.15)"/><polygon class="cls-1" points="60 45.65 60.11 45.67 60.18 45.54 60 45.65"/><path class="cls-1" d="M74.32,52l-.35.11s0,0-.08.06A3.11,3.11,0,0,0,74.32,52Z" transform="translate(-12.68 -7.15)"/><path class="cls-1" d="M73.89,52.21a1.37,1.37,0,0,0-.27.13Z" transform="translate(-12.68 -7.15)"/><path class="cls-1" d="M73.09,52.51l.1,0,.23-.12Z" transform="translate(-12.68 -7.15)"/><path class="cls-1" d="M78,50.64l.35-.21s-.08,0-.21.08S78,50.65,78,50.64Z" transform="translate(-12.68 -7.15)"/><path class="cls-1" d="M76.85,51A.66.66,0,0,1,77,51l0-.1Z" transform="translate(-12.68 -7.15)"/><path class="cls-1" d="M77.9,50.46c0-.05.48-.34,0-.1C77.91,50.4,77.57,50.6,77.9,50.46Z" transform="translate(-12.68 -7.15)"/><polygon class="cls-1" points="70.03 39.71 69.97 39.79 70.09 39.88 70.03 39.71"/><path class="cls-1" d="M80.75,43.29c.39.21.13,0,.48.16.12,0-.28-.17-.17-.15C80.79,43.22,80.67,43.14,80.75,43.29Z" transform="translate(-12.68 -7.15)"/><path class="cls-1" d="M81.06,43.3l.14,0Z" transform="translate(-12.68 -7.15)"/><path class="cls-1" d="M74.13,12a3.43,3.43,0,0,0-.34.06l.22,0Z" transform="translate(-12.68 -7.15)"/><path class="cls-1" d="M73.56,12.34l-.12-.06-.14.17A.81.81,0,0,1,73.56,12.34Z" transform="translate(-12.68 -7.15)"/><path class="cls-1" d="M74.34,35v0s.12,0,.26-.08Z" transform="translate(-12.68 -7.15)"/><polygon class="cls-1" points="65.46 26.2 65.4 26.23 65.56 26.24 65.46 26.2"/><path class="cls-1" d="M80.52,31.19l-.23.34C80.45,31.29,80.64,31.22,80.52,31.19Z" transform="translate(-12.68 -7.15)"/></svg>